<svg xmlns="http://www.w3.org/2000/svg" viewBox="0 12.5 138.10000610351562 39.5" data-asc="0.89"><g fill="#ffffff"><g fill="#ffffff" transform="translate(0, 0)"><path d="M5.60 52Q2.95 52 1.48 50.45Q0 48.90 0 46.25Q0 45.60 0.08 45Q0.15 44.40 0.25 43.90Q1.15 39.65 4.80 34.15Q7.20 30.45 10.18 27.45Q13.15 24.45 16.32 22.65Q19.50 20.85 22.45 20.85Q24.15 20.85 24.95 21.77Q25.75 22.70 25.75 24.25Q25.75 26.05 24.85 28.40Q23.90 30.75 22.53 32.83Q21.15 34.90 19.85 35.85Q19.65 36.05 19.40 36.05Q19.20 36.05 19.20 35.80Q19.20 35.25 19.90 34.70Q20.55 34.25 21.33 33.13Q22.10 32 22.83 30.60Q23.55 29.20 24.03 27.80Q24.50 26.40 24.50 25.40Q24.50 23 22.10 23Q17.55 23 13.30 26.50Q10.45 28.80 8.13 31.88Q5.80 34.95 4.18 38.15Q2.55 41.35 1.80 44.20Q1.50 45.30 1.50 46.40Q1.50 48.55 2.73 49.80Q3.95 51.05 6.05 50.85Q9.90 50.50 14.55 47.80Q17.60 46 20.45 43.75Q23.30 41.50 25.75 39.02Q28.20 36.55 30.00 34.25L27.60 34.60Q26.50 34.75 25.78 34.92Q25.05 35.10 24.80 35.20Q24.70 35.25 24.55 35.25Q24.25 35.25 24.25 34.80Q24.25 34.35 24.58 33.75Q24.90 33.15 25.30 32.95Q26.65 32.25 31.75 31.90Q33.95 29.40 36.30 26.90Q38.80 24.20 40.50 22.30Q42.20 20.40 43.52 18.77Q44.85 17.15 46.10 15.40Q46.50 14.85 46.90 14.85Q47.20 14.85 47.20 15.15Q47.20 15.45 47 15.65Q45.30 18.05 43.45 20.35Q41.60 22.65 39.38 25.22Q37.15 27.80 34.35 31.05L33.70 31.80L36 31.70L40.40 31.55Q40.35 31.65 40.85 30.63Q41.35 29.60 42.35 27.45Q43.75 24.55 44.83 22.27Q45.90 20 46.60 18.35Q48.05 15.10 48.10 13.85Q48.15 13.20 48.75 12.85Q49.35 12.50 50.10 12.50Q50.65 12.50 51.13 12.67Q51.60 12.85 51.70 13.10Q51.95 13.55 50.95 15.50Q50.30 16.85 49.35 18.60Q48.40 20.35 47.20 22.50Q45.55 25.45 44.38 27.70Q43.20 29.95 42.50 31.50L46.35 31.30L46.50 31.30Q46.95 31.30 46.95 31.60Q46.95 31.80 46.70 32Q46.45 32.20 46.05 32.25L42 32.55Q41.95 32.65 41.45 33.75Q40.95 34.85 40 36.90Q38.10 41.10 38.10 44.05Q38.10 46.05 39.60 46.05Q40 46.05 40.67 45.67Q41.35 45.30 41.98 44.80Q42.60 44.30 42.90 43.90Q43.25 43.40 43.60 43.40Q43.80 43.40 43.80 43.60Q43.80 43.85 43.40 44.25Q42.90 44.80 42.10 45.50Q41.30 46.20 40.50 46.70Q39.70 47.20 39.15 47.25Q35.95 47.45 35.95 44.35Q35.95 42.50 36.88 40.10Q37.80 37.70 39.20 34.50L40 32.70Q38.30 32.85 35.35 33.45Q34.30 33.65 33.48 33.77Q32.65 33.90 32.10 34Q29.15 37.35 25.75 40.55Q22.35 43.75 18.82 46.35Q15.30 48.95 11.93 50.48Q8.55 52 5.60 52ZM44.80 45.30Q43.90 45.30 43.90 44.60Q43.90 44.15 44.23 43.45Q44.55 42.75 44.90 42.10Q45.85 40.40 46.65 38.80Q47.45 37.20 48.20 35.40Q48.55 34.60 49.25 34.60Q50 34.60 49.70 35.50Q49.40 36.25 49.10 36.85Q47.70 39.70 47.70 40.70Q47.70 41.15 48 41.25Q48.70 40.70 49.05 40.42Q49.40 40.15 49.45 40.10Q50.15 39.55 51.02 38.83Q51.90 38.10 52.95 37.15Q54.60 35.65 55.70 35.65Q57.05 35.65 56.85 38.10Q56.80 39.05 56.85 39.95Q56.90 40.15 56.90 40.52Q56.90 40.90 56.90 41.40Q56.90 41.90 57.50 41.90Q58.20 41.90 58.80 41.50L59.90 40.75L61 40.05Q61.10 40 61.35 40Q61.65 40 61.35 40.45Q58.20 44.35 56.15 44.35Q55.75 44.35 55.35 44.20Q55 44.05 54.85 43.33Q54.70 42.60 54.67 41.75Q54.65 40.90 54.65 40.45L54.70 38.80Q54.70 37.75 54.15 37.75Q52.85 37.75 47.75 43.10Q47.35 43.60 46.50 44.45Q45.65 45.30 44.80 45.30ZM69.35 45.85Q69.25 45.85 69.15 45.83Q69.05 45.80 68.95 45.75Q68.25 45.40 68.05 44.75Q67.85 44.10 67.95 43.10Q68.05 42.70 68.17 41.70Q68.30 40.70 68.50 40.10L65.95 42.55L64.55 43.90Q63.10 45.35 62.15 45.35Q61.75 45.35 61.50 45.05Q61.05 44.50 61.05 43.70Q61.05 42.65 61.60 41.45Q62.15 40.25 62.90 39.13Q63.65 38 64.25 37.25Q65.75 35.40 67.17 34.35Q68.60 33.30 70.15 33.30Q71 33.30 71.83 33.60Q72.65 33.90 73.35 34.60L73.40 34.65Q73.40 34.80 73.15 34.95Q73.05 35.05 72.97 35.10Q72.90 35.15 72.85 35.20Q72.25 35.80 71.50 37.20Q70.75 38.60 70.20 40.13Q69.65 41.65 69.65 42.75Q69.65 43.75 70.15 44.10Q70.40 44.25 70.70 44.25Q71.35 44.25 72.50 43.45Q72.55 43.40 72.72 43.27Q72.90 43.15 73.25 42.90Q73.65 42.60 73.90 42.60Q74.15 42.60 74.15 42.80Q74.15 43.10 73.75 43.50Q73.45 43.75 73.08 44.05Q72.70 44.35 72.20 44.65Q71.45 45.20 70.65 45.52Q69.85 45.85 69.35 45.85M63.70 42.65Q64.75 42.65 67.60 39.55Q68.35 38.70 68.95 37.92Q69.55 37.15 70.05 36.40Q70.95 34.95 70.65 34.40Q70.50 34.10 70.05 34.10Q69.50 34.10 68.55 34.67Q67.60 35.25 66.63 36.15Q65.65 37.05 64.85 37.95Q64.30 38.65 63.75 39.90Q63.20 41.15 63.20 41.95Q63.20 42.65 63.70 42.65ZM74.75 46.60Q73.95 46.60 73.35 46.45Q72.80 46.30 72.80 46.05Q72.80 45.65 73.60 45.60Q74.35 45.55 74.60 45.45Q75.05 45.35 75.65 45.30Q76.20 45.20 76.55 45.15Q78.95 44.45 78.95 43Q78.95 42 77.90 40.45Q77.25 39.50 77.25 38.35Q77.25 36.95 78.13 35.60Q79 34.25 80.33 33.23Q81.65 32.20 83 31.85Q83.60 31.70 84.25 31.70Q85.30 31.70 85.75 32.20Q86.05 32.50 86.05 33.50Q86.05 34.25 85.80 35.02Q85.55 35.80 85.10 36.30Q84.85 36.55 84.70 36.55Q84.45 36.55 84.45 35.85L84.50 34.85Q84.55 34.45 84.58 34.15Q84.60 33.85 84.60 33.65Q84.60 32.80 84.25 32.65Q83.85 32.55 83.70 32.55Q82.65 32.55 81.45 33.50Q80.25 34.45 79.50 35.70Q79.20 36.15 79.20 36.80Q79.20 37.60 79.63 38.67Q80.05 39.75 80.25 40.25Q80.75 41.35 81.03 42.15Q81.30 42.95 81.30 43.55Q81.30 43.85 81.25 44Q81.50 43.90 82.45 43.70Q83.30 43.50 83.90 43.50Q84.25 43.50 84.25 43.65Q84.25 43.70 83.95 44Q83.80 44.15 83.03 44.48Q82.25 44.80 81.23 45.15Q80.20 45.50 79.20 45.80Q78.20 46.10 77.50 46.25Q76.30 46.60 74.75 46.60ZM86.15 49.15Q85.90 49.15 85.90 48.70Q85.90 48.60 85.92 48.42Q85.95 48.25 86 48.05L88.15 42.65L90.70 36.35Q90.10 36.30 88.95 36.38Q87.80 36.45 87 36.60Q86.70 36.65 86.53 36.67Q86.35 36.70 86.25 36.70Q85.85 36.70 85.70 36.35Q85.75 36.05 86.25 35.80Q86.50 35.70 86.85 35.63Q87.20 35.55 87.70 35.45Q88.25 35.35 88.67 35.30Q89.10 35.25 89.30 35.20Q89.55 35.15 89.80 35.10Q90.05 35.05 90.40 35Q90.70 34.95 91.05 34.90Q91.40 34.85 91.80 34.75Q92.20 34.20 93 32.80Q93.80 31.40 95.05 29.10Q96.05 27.25 96.67 26.18Q97.30 25.10 97.55 24.75Q98 24.15 98.60 24.15Q98.90 24.15 98.90 24.40Q98.90 24.45 98.65 25.05Q98.35 25.55 97.65 26.90Q96.95 28.25 96.15 29.85Q95.35 31.45 94.70 32.85Q94.05 34.25 93.80 34.90Q94.05 34.85 94.38 34.85Q94.70 34.85 95.20 34.85Q95.75 34.85 96.22 34.88Q96.70 34.90 97.05 34.95Q97.75 35.10 97.75 35.35Q97.75 35.45 97.30 35.70Q97.05 35.80 96.35 35.90Q95.65 36 94.50 36.10Q94.20 36.10 93.85 36.13Q93.50 36.15 93.10 36.20Q91.60 38.65 89 44.35Q88.05 46.25 87.55 47.30Q87.05 48.35 86.95 48.55Q86.50 49.15 86.15 49.15ZM103.65 45.85Q103.55 45.85 103.45 45.83Q103.35 45.80 103.25 45.75Q102.55 45.40 102.35 44.75Q102.15 44.10 102.25 43.10Q102.35 42.70 102.47 41.70Q102.60 40.70 102.80 40.10L100.25 42.55L98.85 43.90Q97.40 45.35 96.45 45.35Q96.05 45.35 95.80 45.05Q95.35 44.50 95.35 43.70Q95.35 42.65 95.90 41.45Q96.45 40.25 97.20 39.13Q97.95 38 98.55 37.25Q100.05 35.40 101.47 34.35Q102.90 33.30 104.45 33.30Q105.30 33.30 106.13 33.60Q106.95 33.90 107.65 34.60L107.70 34.65Q107.70 34.80 107.45 34.95Q107.35 35.05 107.27 35.10Q107.20 35.15 107.15 35.20Q106.55 35.80 105.80 37.20Q105.05 38.60 104.50 40.13Q103.95 41.65 103.95 42.75Q103.95 43.75 104.45 44.10Q104.70 44.25 105 44.25Q105.65 44.25 106.80 43.45Q106.85 43.40 107.02 43.27Q107.20 43.15 107.55 42.90Q107.95 42.60 108.20 42.60Q108.45 42.60 108.45 42.80Q108.45 43.10 108.05 43.50Q107.75 43.75 107.38 44.05Q107 44.35 106.50 44.65Q105.75 45.20 104.95 45.52Q104.15 45.85 103.65 45.85M98 42.65Q99.05 42.65 101.90 39.55Q102.65 38.70 103.25 37.92Q103.85 37.15 104.35 36.40Q105.25 34.95 104.95 34.40Q104.80 34.10 104.35 34.10Q103.80 34.10 102.85 34.67Q101.90 35.25 100.92 36.15Q99.95 37.05 99.15 37.95Q98.60 38.65 98.05 39.90Q97.50 41.15 97.50 41.95Q97.50 42.65 98 42.65ZM109.05 46.60Q108.25 46.60 107.65 46.45Q107.10 46.30 107.10 46.05Q107.10 45.65 107.90 45.60Q108.65 45.55 108.90 45.45Q109.35 45.35 109.95 45.30Q110.50 45.20 110.85 45.15Q113.25 44.45 113.25 43Q113.25 42 112.20 40.45Q111.55 39.50 111.55 38.35Q111.55 36.95 112.42 35.60Q113.30 34.25 114.62 33.23Q115.95 32.20 117.30 31.85Q117.90 31.70 118.55 31.70Q119.60 31.70 120.05 32.20Q120.35 32.50 120.35 33.50Q120.35 34.25 120.10 35.02Q119.85 35.80 119.40 36.30Q119.15 36.55 119.00 36.55Q118.75 36.55 118.75 35.85L118.80 34.85Q118.85 34.45 118.87 34.15Q118.90 33.85 118.90 33.65Q118.90 32.80 118.55 32.65Q118.15 32.55 118.00 32.55Q116.95 32.55 115.75 33.50Q114.55 34.45 113.80 35.70Q113.50 36.15 113.50 36.80Q113.50 37.60 113.92 38.67Q114.35 39.75 114.55 40.25Q115.05 41.35 115.32 42.15Q115.60 42.95 115.60 43.55Q115.60 43.85 115.55 44Q115.80 43.90 116.75 43.70Q117.60 43.50 118.20 43.50Q118.55 43.50 118.55 43.65Q118.55 43.70 118.25 44Q118.10 44.15 117.32 44.48Q116.55 44.80 115.52 45.15Q114.50 45.50 113.50 45.80Q112.50 46.10 111.80 46.25Q110.60 46.60 109.05 46.60ZM125.10 33.55Q124.45 33.55 124.45 33.25Q124.45 33 124.82 32.52Q125.20 32.05 125.70 31.70Q126.80 31 127.42 30.50Q128.05 30 128.95 28.80Q129.00 28.90 129.00 29.20Q129.00 29.85 128.47 30.77Q127.95 31.70 127.30 32.45Q126.65 33.20 126.15 33.40Q125.70 33.55 125.10 33.55M120.65 45.80Q120.25 45.80 119.90 45.50Q119.55 45.20 119.55 44.70Q119.55 43.65 121.00 40.85L121.55 39.75Q121.65 39.65 121.82 39.25Q122.00 38.85 122.35 38.20Q122.70 37.50 122.90 36.95Q123.10 36.40 123.20 35.90Q123.20 35.85 123.40 35.70Q123.60 35.55 123.80 35.45L124.10 35.40Q124.50 35.40 124.77 35.55Q125.05 35.70 124.95 35.95Q124.60 36.70 124.35 37.25Q124.10 37.80 123.95 38.20L123.90 38.20Q123.35 39.45 122.97 40.58Q122.60 41.70 122.65 42.70L122.70 44.05Q122.65 44.55 122.35 44.90Q122.15 45.05 121.80 45.27Q121.45 45.50 120.90 45.75Q120.85 45.80 120.65 45.80ZM133.30 45.85Q133.20 45.85 133.10 45.83Q133 45.80 132.90 45.75Q132.20 45.40 132 44.75Q131.80 44.10 131.90 43.10Q132 42.70 132.13 41.70Q132.25 40.70 132.45 40.10L129.90 42.55L128.50 43.90Q127.05 45.35 126.10 45.35Q125.70 45.35 125.45 45.05Q125.00 44.50 125.00 43.70Q125.00 42.65 125.55 41.45Q126.10 40.25 126.85 39.13Q127.60 38 128.20 37.25Q129.70 35.40 131.13 34.35Q132.55 33.30 134.10 33.30Q134.95 33.30 135.77 33.60Q136.60 33.90 137.30 34.60L137.35 34.65Q137.35 34.80 137.10 34.95Q137 35.05 136.92 35.10Q136.85 35.15 136.80 35.20Q136.20 35.80 135.45 37.20Q134.70 38.60 134.15 40.13Q133.60 41.65 133.60 42.75Q133.60 43.75 134.10 44.10Q134.35 44.25 134.65 44.25Q135.30 44.25 136.45 43.45Q136.50 43.40 136.67 43.27Q136.85 43.15 137.20 42.90Q137.60 42.60 137.85 42.60Q138.10 42.60 138.10 42.80Q138.10 43.10 137.70 43.50Q137.40 43.75 137.02 44.05Q136.65 44.35 136.15 44.65Q135.40 45.20 134.60 45.52Q133.80 45.85 133.30 45.85M127.65 42.65Q128.70 42.65 131.55 39.55Q132.30 38.70 132.90 37.92Q133.50 37.15 134 36.40Q134.90 34.95 134.60 34.40Q134.45 34.10 134 34.10Q133.45 34.10 132.50 34.67Q131.55 35.25 130.57 36.15Q129.60 37.05 128.80 37.95Q128.25 38.65 127.70 39.90Q127.15 41.15 127.15 41.95Q127.15 42.65 127.65 42.65Z"/></g></g></svg>