<svg xmlns="http://www.w3.org/2000/svg" viewBox="0 22.75 53.900001525878906 25.5" data-asc="0.89"><g fill="#ffffff"><g fill="#ffffff" transform="translate(0, 0)"><path d="M8.30 45.85Q8.20 45.85 8.10 45.83Q8 45.80 7.90 45.75Q7.20 45.40 7 44.75Q6.80 44.10 6.90 43.10Q7 42.70 7.13 41.70Q7.25 40.70 7.45 40.10L4.90 42.55L3.50 43.90Q2.05 45.35 1.10 45.35Q0.70 45.35 0.45 45.05Q0 44.50 0 43.70Q0 42.65 0.55 41.45Q1.10 40.25 1.85 39.13Q2.60 38 3.20 37.25Q4.70 35.40 6.13 34.35Q7.55 33.30 9.10 33.30Q9.95 33.30 10.78 33.60Q11.60 33.90 12.30 34.60L12.35 34.65Q12.35 34.80 12.10 34.95Q12 35.05 11.93 35.10Q11.85 35.15 11.80 35.20Q11.20 35.80 10.45 37.20Q9.70 38.60 9.15 40.13Q8.60 41.65 8.60 42.75Q8.60 43.75 9.10 44.10Q9.35 44.25 9.65 44.25Q10.30 44.25 11.45 43.45Q11.50 43.40 11.68 43.27Q11.85 43.15 12.20 42.90Q12.60 42.60 12.85 42.60Q13.10 42.60 13.10 42.80Q13.10 43.10 12.70 43.50Q12.40 43.75 12.03 44.05Q11.65 44.35 11.15 44.65Q10.40 45.20 9.60 45.52Q8.80 45.85 8.30 45.85M2.65 42.65Q3.70 42.65 6.55 39.55Q7.30 38.70 7.90 37.92Q8.50 37.15 9 36.40Q9.90 34.95 9.60 34.40Q9.45 34.10 9 34.10Q8.45 34.10 7.50 34.67Q6.55 35.25 5.58 36.15Q4.60 37.05 3.80 37.95Q3.25 38.65 2.70 39.90Q2.15 41.15 2.15 41.95Q2.15 42.65 2.65 42.65ZM14.40 45.30Q13.50 45.30 13.50 44.60Q13.50 44.15 13.83 43.45Q14.15 42.75 14.50 42.10Q15.45 40.40 16.25 38.80Q17.05 37.20 17.80 35.40Q18.15 34.60 18.85 34.60Q19.60 34.60 19.30 35.50Q19 36.25 18.70 36.85Q17.30 39.70 17.30 40.70Q17.30 41.15 17.60 41.25Q18.30 40.70 18.65 40.42Q19 40.15 19.05 40.10Q19.75 39.55 20.63 38.83Q21.50 38.10 22.55 37.15Q24.20 35.65 25.30 35.65Q26.65 35.65 26.45 38.10Q26.40 39.05 26.45 39.95Q26.50 40.15 26.50 40.52Q26.50 40.90 26.50 41.40Q26.50 41.90 27.10 41.90Q27.80 41.90 28.40 41.50L29.50 40.75L30.60 40.05Q30.70 40 30.95 40Q31.25 40 30.95 40.45Q27.80 44.35 25.75 44.35Q25.35 44.35 24.95 44.20Q24.60 44.05 24.45 43.33Q24.30 42.60 24.28 41.75Q24.25 40.90 24.25 40.45L24.30 38.80Q24.30 37.75 23.75 37.75Q22.45 37.75 17.35 43.10Q16.95 43.60 16.10 44.45Q15.25 45.30 14.40 45.30ZM40.60 48.25Q39.85 48.25 39.50 47.50Q39.45 47.45 39.45 47.20Q39.45 46.95 39.70 46.05Q39.80 45.80 39.88 45.55Q39.95 45.30 40.05 45.05Q40.15 44.80 40.25 44.48Q40.35 44.15 40.45 43.80Q40.65 43.05 40.65 42.55Q40.65 41.85 40.20 41.85Q40.05 41.85 39.65 42.10Q39.00 42.60 38.28 43.05Q37.55 43.50 36.75 43.90L35.15 44.75L34.10 45.35Q33.95 45.40 33.40 45.80Q32.90 46.10 32.35 46.10Q31.70 46.10 30.90 45.40Q30.30 44.80 30.30 44.15Q30.30 43.60 30.85 42.60Q31.25 41.95 32.20 41Q32.60 40.60 32.88 40.27Q33.15 39.95 33.35 39.75Q35.45 36.95 39.85 34.80Q41.10 34.15 42.10 34.15Q43.20 34.15 43.85 35.05Q44.15 34.45 44.83 33.33Q45.50 32.20 46.33 30.85Q47.15 29.50 47.93 28.30Q48.70 27.10 49.15 26.45Q50.50 24.60 51.35 23.65Q52.20 22.75 52.90 22.75Q53.15 22.75 53.55 23Q53.90 23.30 53.90 23.80Q53.90 24.55 53.25 25.55Q52.60 26.55 51.45 28Q51.35 28.15 51.15 28.38Q50.95 28.60 50.70 28.95Q50.15 29.75 49.55 30.63Q48.95 31.50 48.25 32.35Q47.25 33.65 46.15 35.17Q45.05 36.70 44.10 38.35Q43.25 39.85 42.65 41.42Q42.05 43 41.65 44.60Q41.60 44.95 41.58 45.17Q41.55 45.40 41.55 45.50L41.60 46.25Q41.65 46.40 41.65 46.95Q41.65 48.25 40.60 48.25M33.75 43.95Q34.30 43.95 34.75 43.75Q36.65 43.10 38.35 42.10Q40.05 41.10 41.95 39.40Q42.20 38.70 42.55 37.90Q42.90 37.10 43.30 36.15Q42.70 34.90 41.55 34.90Q40.80 34.90 39.95 35.40Q39.10 35.90 38.05 36.75Q37.05 37.55 36.03 38.55Q35.00 39.55 34.25 40.48Q33.50 41.40 33.20 42Q32.90 42.50 32.90 43.15Q32.90 43.95 33.75 43.95Z"/></g></g></svg>