<svg xmlns="http://www.w3.org/2000/svg" viewBox="0 12.5 108.8499984741211 42.75" data-asc="0.89"><g fill="#ffffff"><g fill="#ffffff" transform="translate(0, 0)"><path d="M5.60 52Q2.95 52 1.48 50.45Q0 48.90 0 46.25Q0 45.60 0.08 45Q0.15 44.40 0.25 43.90Q1.15 39.65 4.80 34.15Q7.20 30.45 10.18 27.45Q13.15 24.45 16.32 22.65Q19.50 20.85 22.45 20.85Q24.15 20.85 24.95 21.77Q25.75 22.70 25.75 24.25Q25.75 26.05 24.85 28.40Q23.90 30.75 22.53 32.83Q21.15 34.90 19.85 35.85Q19.65 36.05 19.40 36.05Q19.20 36.05 19.20 35.80Q19.20 35.25 19.90 34.70Q20.55 34.25 21.33 33.13Q22.10 32 22.83 30.60Q23.55 29.20 24.03 27.80Q24.50 26.40 24.50 25.40Q24.50 23 22.10 23Q17.55 23 13.30 26.50Q10.45 28.80 8.13 31.88Q5.80 34.95 4.18 38.15Q2.55 41.35 1.80 44.20Q1.50 45.30 1.50 46.40Q1.50 48.55 2.73 49.80Q3.95 51.05 6.05 50.85Q9.90 50.50 14.55 47.80Q17.60 46 20.45 43.75Q23.30 41.50 25.75 39.02Q28.20 36.55 30.00 34.25L27.60 34.60Q26.50 34.75 25.78 34.92Q25.05 35.10 24.80 35.20Q24.70 35.25 24.55 35.25Q24.25 35.25 24.25 34.80Q24.25 34.35 24.58 33.75Q24.90 33.15 25.30 32.95Q26.65 32.25 31.75 31.90Q33.95 29.40 36.30 26.90Q38.80 24.20 40.50 22.30Q42.20 20.40 43.52 18.77Q44.85 17.15 46.10 15.40Q46.50 14.85 46.90 14.85Q47.20 14.85 47.20 15.15Q47.20 15.45 47 15.65Q45.30 18.05 43.45 20.35Q41.60 22.65 39.38 25.22Q37.15 27.80 34.35 31.05L33.70 31.80L36 31.70L40.40 31.55Q40.35 31.65 40.85 30.63Q41.35 29.60 42.35 27.45Q43.75 24.55 44.83 22.27Q45.90 20 46.60 18.35Q48.05 15.10 48.10 13.85Q48.15 13.20 48.75 12.85Q49.35 12.50 50.10 12.50Q50.65 12.50 51.13 12.67Q51.60 12.85 51.70 13.10Q51.95 13.55 50.95 15.50Q50.30 16.85 49.35 18.60Q48.40 20.35 47.20 22.50Q45.55 25.45 44.38 27.70Q43.20 29.95 42.50 31.50L46.35 31.30L46.50 31.30Q46.95 31.30 46.95 31.60Q46.95 31.80 46.70 32Q46.45 32.20 46.05 32.25L42 32.55Q41.95 32.65 41.45 33.75Q40.95 34.85 40 36.90Q38.10 41.10 38.10 44.05Q38.10 46.05 39.60 46.05Q40 46.05 40.67 45.67Q41.35 45.30 41.98 44.80Q42.60 44.30 42.90 43.90Q43.25 43.40 43.60 43.40Q43.80 43.40 43.80 43.60Q43.80 43.85 43.40 44.25Q42.90 44.80 42.10 45.50Q41.30 46.20 40.50 46.70Q39.70 47.20 39.15 47.25Q35.95 47.45 35.95 44.35Q35.95 42.50 36.88 40.10Q37.80 37.70 39.20 34.50L40 32.70Q38.30 32.85 35.35 33.45Q34.30 33.65 33.48 33.77Q32.65 33.90 32.10 34Q29.15 37.35 25.75 40.55Q22.35 43.75 18.82 46.35Q15.30 48.95 11.93 50.48Q8.55 52 5.60 52ZM53.85 45.95Q52.55 45.95 52.55 44.05Q52.55 42.10 53.90 38.30Q52.30 40.35 50.73 41.92Q49.15 43.50 47.60 44.50Q46.50 45.30 45.60 45.30Q44.40 45.30 44.40 43.65Q44.40 42.75 44.70 42Q45.10 40.90 45.88 39.45Q46.65 38 47.70 36.55Q48.75 35.10 49.85 34.10Q50.25 33.85 50.35 33.85Q50.70 33.85 50.70 34.25Q50.70 34.40 50.55 34.65Q50.10 35.15 49.50 36.10Q48.90 37.05 48.35 38.15Q47.80 39.25 47.42 40.17Q47.05 41.10 47.05 41.55Q47.05 42.45 47.85 42.45Q48.20 42.45 48.60 42.20Q50.45 41.05 52 39.42Q53.55 37.80 54.90 35Q55.35 34.70 55.90 34.70Q56.45 34.70 56.83 35.05Q57.20 35.40 57.20 36Q57.20 36.45 56.95 37.05Q56.90 37.25 56.77 37.45Q56.65 37.65 56.50 37.90Q56.35 38.15 56.25 38.38Q56.15 38.60 56.05 38.75Q55.10 40.45 54.58 41.60Q54.05 42.75 54.05 43.60Q54.05 44.60 54.95 44.60Q55.75 44.60 56.55 44Q57.05 43.65 57.40 43.65Q57.95 43.65 57.17 44.33Q56.40 45 55.30 45.55Q54.25 45.95 53.85 45.95ZM58.50 55.25Q57.40 55.25 56.68 54.23Q55.95 53.20 55.95 51.90Q55.95 50.85 56.25 50.35Q56.65 49.80 57 49.80Q57.40 49.80 57.40 50.25Q57.40 50.65 57.10 51.05Q56.90 51.30 56.90 51.70Q56.90 52.45 57.40 53.20Q57.90 53.95 58.60 53.95Q58.70 53.95 58.80 53.92Q58.90 53.90 59.05 53.85Q61.40 52.95 63.35 50.10Q65.30 47.20 66.55 43.73Q67.80 40.25 68.40 37.30L68.20 37.25Q68.05 37.15 67.75 37.48Q67.45 37.80 67.15 38.17Q66.85 38.55 66.75 38.70Q66.60 38.90 65.98 39.58Q65.35 40.25 64.50 41.08Q63.65 41.90 62.80 42.70Q61.95 43.50 61.35 44Q60.60 44.65 59.50 44.65Q59.20 44.65 58.90 44.55Q58.35 44.25 58.35 43.60Q58.35 42.75 59.35 41Q60.10 39.70 61.60 37.73Q63.10 35.75 64.90 34.35Q66.20 33.30 67.60 33Q67.85 32.95 68.10 32.92Q68.35 32.90 68.60 32.85Q68.85 32.85 69.05 32.85Q69.25 32.85 69.45 32.80Q69.50 32.80 70.23 32.73Q70.95 32.65 71.15 32.25L71.30 32.20Q71.50 32.20 71.70 32.40Q71.85 32.55 71.85 33Q71.85 33.15 71.80 33.38Q71.75 33.60 71.75 33.90L71.75 33.95Q71.75 35.80 71.05 37.77Q70.35 39.75 69.55 41.80Q67.90 45.95 65.38 49.50Q62.85 53.05 59.80 54.85Q59.15 55.25 58.50 55.25M60 42.85Q60.20 42.95 60.30 42.95Q60.55 42.95 61.05 42.70Q61.40 42.50 61.78 42.20Q62.15 41.90 62.65 41.50Q63 41.25 63.45 40.80Q63.90 40.35 64.50 39.75L65.45 38.85Q66.15 38.15 66.95 37.20Q67.75 36.25 68.30 35.35Q68.85 34.45 68.85 33.95Q68.85 33.50 68.30 33.50Q67.75 33.50 66.83 34.10Q65.90 34.70 64.92 35.55Q63.95 36.40 63.25 37.20Q62.60 37.85 62.03 38.63Q61.45 39.40 60.90 40.25Q60.25 41.20 60 41.90Q59.70 42.65 60 42.85ZM81.25 45.95Q79.95 45.95 79.95 44.05Q79.95 42.10 81.30 38.30Q79.70 40.35 78.13 41.92Q76.55 43.50 75.00 44.50Q73.90 45.30 73.00 45.30Q71.80 45.30 71.80 43.65Q71.80 42.75 72.10 42Q72.50 40.90 73.28 39.45Q74.05 38 75.10 36.55Q76.15 35.10 77.25 34.10Q77.65 33.85 77.75 33.85Q78.10 33.85 78.10 34.25Q78.10 34.40 77.95 34.65Q77.50 35.15 76.90 36.10Q76.30 37.05 75.75 38.15Q75.20 39.25 74.83 40.17Q74.45 41.10 74.45 41.55Q74.45 42.45 75.25 42.45Q75.60 42.45 76.00 42.20Q77.85 41.05 79.40 39.42Q80.95 37.80 82.30 35Q82.75 34.70 83.30 34.70Q83.85 34.70 84.23 35.05Q84.60 35.40 84.60 36Q84.60 36.45 84.35 37.05Q84.30 37.25 84.18 37.45Q84.05 37.65 83.90 37.90Q83.75 38.15 83.65 38.38Q83.55 38.60 83.45 38.75Q82.50 40.45 81.98 41.60Q81.45 42.75 81.45 43.60Q81.45 44.60 82.35 44.60Q83.15 44.60 83.95 44Q84.45 43.65 84.80 43.65Q85.35 43.65 84.58 44.33Q83.80 45 82.70 45.55Q81.65 45.95 81.25 45.95ZM84.70 46.60Q83.90 46.60 83.30 46.45Q82.75 46.30 82.75 46.05Q82.75 45.65 83.55 45.60Q84.30 45.55 84.55 45.45Q85.00 45.35 85.60 45.30Q86.15 45.20 86.50 45.15Q88.90 44.45 88.90 43Q88.90 42 87.85 40.45Q87.20 39.50 87.20 38.35Q87.20 36.95 88.08 35.60Q88.95 34.25 90.28 33.23Q91.60 32.20 92.95 31.85Q93.55 31.70 94.20 31.70Q95.25 31.70 95.70 32.20Q96.00 32.50 96.00 33.50Q96.00 34.25 95.75 35.02Q95.50 35.80 95.05 36.30Q94.80 36.55 94.65 36.55Q94.40 36.55 94.40 35.85L94.45 34.85Q94.50 34.45 94.53 34.15Q94.55 33.85 94.55 33.65Q94.55 32.80 94.20 32.65Q93.80 32.55 93.65 32.55Q92.60 32.55 91.40 33.50Q90.20 34.45 89.45 35.70Q89.15 36.15 89.15 36.80Q89.15 37.60 89.58 38.67Q90.00 39.75 90.20 40.25Q90.70 41.35 90.98 42.15Q91.25 42.95 91.25 43.55Q91.25 43.85 91.20 44Q91.45 43.90 92.40 43.70Q93.25 43.50 93.85 43.50Q94.20 43.50 94.20 43.65Q94.20 43.70 93.90 44Q93.75 44.15 92.98 44.48Q92.20 44.80 91.18 45.15Q90.15 45.50 89.15 45.80Q88.15 46.10 87.45 46.25Q86.25 46.60 84.70 46.60ZM96.10 49.15Q95.85 49.15 95.85 48.70Q95.85 48.60 95.88 48.42Q95.90 48.25 95.95 48.05L98.10 42.65L100.65 36.35Q100.05 36.30 98.90 36.38Q97.75 36.45 96.95 36.60Q96.65 36.65 96.48 36.67Q96.30 36.70 96.20 36.70Q95.80 36.70 95.65 36.35Q95.70 36.05 96.20 35.80Q96.45 35.70 96.80 35.63Q97.15 35.55 97.65 35.45Q98.20 35.35 98.63 35.30Q99.05 35.25 99.25 35.20Q99.50 35.15 99.75 35.10Q100.00 35.05 100.35 35Q100.65 34.95 101.00 34.90Q101.35 34.85 101.75 34.75Q102.15 34.20 102.95 32.80Q103.75 31.40 105.00 29.10Q106.00 27.25 106.63 26.18Q107.25 25.10 107.50 24.75Q107.95 24.15 108.55 24.15Q108.85 24.15 108.85 24.40Q108.85 24.45 108.60 25.05Q108.30 25.55 107.60 26.90Q106.90 28.25 106.10 29.85Q105.30 31.45 104.65 32.85Q104.00 34.25 103.75 34.90Q104.00 34.85 104.33 34.85Q104.65 34.85 105.15 34.85Q105.70 34.85 106.18 34.88Q106.65 34.90 107.00 34.95Q107.70 35.10 107.70 35.35Q107.70 35.45 107.25 35.70Q107.00 35.80 106.30 35.90Q105.60 36 104.45 36.10Q104.15 36.10 103.80 36.13Q103.45 36.15 103.05 36.20Q101.55 38.65 98.95 44.35Q98.00 46.25 97.50 47.30Q97.00 48.35 96.90 48.55Q96.45 49.15 96.10 49.15Z"/></g></g></svg>