<svg xmlns="http://www.w3.org/2000/svg" id="TEXT" viewBox="0 0 311.68 207.3" style="&#10;background-color: transparent;&#10;">
<defs> 
  <style> .cls-1 { fill: #fff; } </style> 
</defs> 
<g> 
  <g> 
    <path class="cls-1" d="M19.12,20.57h-1.48v-7.02h-3.74v7.02h-1.48V12.17h6.7v8.4Z"/>
    <path class="cls-1" d="M28.22,20.57h-1.46v-3.59h-3.84v3.59h-1.48V12.17h1.48v3.43h3.84v-3.43h1.46v8.4Z"/> 
  </g>
  <g> 
    <path class="cls-1" d="M58.64,20.56V12.19c.86-.04,1.67-.06,2.42-.06,.93,0,1.62,.18,2.08,.55s.68,.88,.68,1.52c0,.9-.4,1.54-1.2,1.91v.02c.46,.12,.82,.35,1.08,.68s.4,.76,.4,1.28c0,.82-.28,1.44-.84,1.87-.56,.43-1.32,.65-2.28,.65s-1.74-.02-2.34-.06Zm2.4-7.04c-.35,0-.66,.01-.92,.04v2.12h1c.38,0,.68-.1,.91-.29,.23-.19,.34-.47,.34-.83,0-.34-.12-.59-.35-.77-.23-.18-.56-.27-.97-.27Zm.12,3.44h-1.04v2.22c.38,.04,.7,.06,.97,.06,1.02,0,1.54-.4,1.54-1.21,0-.35-.13-.62-.38-.8-.26-.18-.62-.27-1.08-.27Z"/>
    <path class="cls-1" d="M67.72,13.55h-2.72v-1.38h6.92v1.38h-2.72v7.02h-1.48v-7.02Z"/>
  </g>
  <g> 
    <path class="cls-1" d="M108.59,18.65l.56,1.1c-.26,.28-.64,.51-1.13,.68-.49,.18-1.01,.26-1.55,.26-1.28,0-2.32-.4-3.13-1.19-.8-.79-1.2-1.84-1.2-3.14s.38-2.28,1.14-3.11c.75-.82,1.8-1.22,3.16-1.22,1.07,0,1.92,.28,2.56,.85l-.66,1.09c-.57-.38-1.2-.56-1.9-.56-.8,0-1.46,.27-1.97,.8-.51,.54-.77,1.25-.77,2.15s.27,1.59,.8,2.14c.54,.54,1.24,.82,2.1,.82,.74,0,1.4-.22,1.99-.67Z"/> 
    <path class="cls-1" d="M112.09,17.53v3.04h-1.48V12.17c.35,0,.73,0,1.14-.01,.42,0,.83-.01,1.25-.01,.59,0,1.11,.07,1.54,.22,.44,.15,.77,.35,1.01,.61,.24,.26,.42,.54,.53,.85,.11,.31,.17,.65,.17,1.01,0,.76-.27,1.4-.82,1.93-.54,.53-1.29,.79-2.26,.79-.49,0-.85-.01-1.09-.04Zm1.06-4.01l-1.06,.02v2.58c.42,.04,.77,.06,1.04,.06,.47,0,.85-.12,1.13-.35,.28-.23,.43-.57,.43-1.01,0-.87-.52-1.31-1.55-1.31Z"/> 
  </g> 
  <g> 
    <path class="cls-1" d="M151.41,12.17h1.48v8.4h-1.48v-3.44c-.53,.38-1.2,.58-2,.58-.73,0-1.34-.22-1.82-.65-.49-.43-.73-1.11-.73-2.04v-2.84h1.48v2.42c0,1.15,.49,1.73,1.48,1.73,.54,0,1.08-.18,1.61-.54v-3.61Z"/> 
    <path class="cls-1" d="M156.89,13.55h-2.72v-1.38h6.92v1.38h-2.72v7.02h-1.48v-7.02Z"/> 
  </g> 
  <g> 
    <path class="cls-1" d="M197.83,20.57h-1.48v-7.02h-3.74v7.02h-1.48V12.17h6.7v8.4Z"/> 
    <path class="cls-1" d="M201.84,13.55h-2.72v-1.38h6.92v1.38h-2.72v7.02h-1.48v-7.02Z"/> 
  </g> 
  <g> 
    <path class="cls-1" d="M241.88,18.65l.56,1.1c-.26,.28-.64,.51-1.13,.68-.49,.18-1.01,.26-1.55,.26-1.28,0-2.32-.4-3.13-1.19-.8-.79-1.2-1.84-1.2-3.14s.38-2.28,1.14-3.11c.75-.82,1.8-1.22,3.16-1.22,1.07,0,1.92,.28,2.56,.85l-.66,1.09c-.57-.38-1.2-.56-1.9-.56-.8,0-1.46,.27-1.97,.8-.51,.54-.77,1.25-.77,2.15s.27,1.59,.8,2.14c.54,.54,1.24,.82,2.1,.82,.74,0,1.4-.22,1.99-.67Z"/> 
    <path class="cls-1" d="M243.91,20.57V12.17h4.91v1.38h-3.43v1.87c.33-.05,.7-.07,1.13-.07,.87,0,1.56,.23,2.06,.68s.76,1.07,.76,1.85c0,.87-.28,1.55-.85,2.02-.56,.48-1.36,.71-2.39,.71-.19,0-.62,0-1.27-.02-.13,0-.26,0-.41,0-.14,0-.25,0-.33-.01s-.13,0-.17,0Zm2.48-3.84c-.3,0-.64,.02-1.01,.07v2.39c.39,.03,.7,.05,.94,.05,1.03,0,1.55-.42,1.55-1.25,0-.39-.12-.7-.37-.92-.25-.22-.62-.34-1.1-.34Z"/> 
  </g> 
  <g> 
    <path class="cls-1" d="M280.47,20.56V12.19c.86-.04,1.67-.06,2.42-.06,.93,0,1.62,.18,2.08,.55s.68,.88,.68,1.52c0,.9-.4,1.54-1.2,1.91v.02c.46,.12,.82,.35,1.08,.68s.4,.76,.4,1.28c0,.82-.28,1.44-.84,1.87-.56,.43-1.32,.65-2.28,.65s-1.74-.02-2.34-.06Zm2.4-7.04c-.35,0-.66,.01-.92,.04v2.12h1c.38,0,.68-.1,.91-.29,.23-.19,.34-.47,.34-.83,0-.34-.12-.59-.35-.77-.23-.18-.56-.27-.97-.27Zm.12,3.44h-1.04v2.22c.38,.04,.7,.06,.97,.06,1.02,0,1.54-.4,1.54-1.21,0-.35-.13-.62-.38-.8-.26-.18-.62-.27-1.08-.27Z"/> 
    <path class="cls-1" d="M293.7,18.65l.56,1.1c-.26,.28-.64,.51-1.13,.68-.49,.18-1.01,.26-1.55,.26-1.28,0-2.32-.4-3.13-1.19-.8-.79-1.2-1.84-1.2-3.14s.38-2.28,1.14-3.11c.75-.82,1.8-1.22,3.16-1.22,1.07,0,1.92,.28,2.56,.85l-.66,1.09c-.57-.38-1.2-.56-1.9-.56-.8,0-1.46,.27-1.97,.8-.51,.54-.77,1.25-.77,2.15s.27,1.59,.8,2.14c.54,.54,1.24,.82,2.1,.82,.74,0,1.4-.22,1.99-.67Z"/> 
  </g> 
</g> 
<path class="cls-1" d="M284.93,49.84l-1.1-1.71,3.22-2.41h1.49v12.64h-2.07v-9.68l-1.55,1.17Z"/> 
<path class="cls-1" d="M24.19,86.14h-7.92v-1.66c1.45-1.42,2.45-2.44,3.01-3.08,1.49-1.7,2.23-3.14,2.23-4.3,0-.52-.14-.92-.41-1.21-.28-.29-.67-.43-1.19-.43-.92,0-1.53,.56-1.82,1.69l-1.73-.77c.17-.92,.59-1.65,1.27-2.19,.68-.53,1.52-.8,2.51-.8,1.13,0,2,.32,2.63,.97,.62,.64,.94,1.41,.94,2.32,0,.65-.14,1.34-.41,2.07-.28,.71-.59,1.33-.95,1.85-.37,.55-.81,1.09-1.31,1.62-.43,.48-.83,.89-1.19,1.22-.18,.17-.47,.42-.88,.76h5.24v1.93Z"/> 
<path class="cls-1" d="M64.38,86.34c-.92,0-1.74-.19-2.44-.57-.7-.38-1.22-.9-1.56-1.56l1.17-1.51c.71,1.04,1.61,1.57,2.7,1.57,.64,0,1.13-.16,1.49-.49,.36-.32,.54-.74,.54-1.26,0-.58-.21-1.02-.62-1.32-.41-.31-.99-.46-1.72-.46h-.9v-2.07h.81c.55,0,1.01-.16,1.39-.49s.56-.74,.56-1.24-.14-.86-.41-1.12-.67-.41-1.19-.41c-.97,0-1.76,.45-2.38,1.35l-1.15-1.46c.7-1.31,1.94-1.96,3.73-1.96,1.09,0,1.97,.29,2.63,.87,.66,.58,.99,1.36,.99,2.33,0,1.43-.64,2.42-1.93,2.99v.05c.76,.13,1.35,.47,1.77,1.02,.43,.55,.64,1.21,.64,1.99,0,1.14-.39,2.05-1.17,2.74-.78,.67-1.76,1.01-2.95,1.01Z"/> 
<path class="cls-1" d="M112.21,86.14h-2.07v-2.92h-5.76v-1.53l4.86-8.15h2.38l-4.55,7.61h3.08v-3.11h2.07v3.11h1.62v2.07h-1.62v2.92Z"/> 
<path class="cls-1" d="M150.46,80.24l.83-6.7h5.96v2.07h-4.14l-.36,2.5c.24-.05,.48-.07,.72-.07,1.15,0,2.09,.37,2.83,1.1,.76,.73,1.13,1.7,1.13,2.92,0,1.31-.41,2.35-1.24,3.13-.82,.77-1.85,1.15-3.1,1.15-.68,0-1.39-.16-2.11-.47-.67-.31-1.2-.76-1.58-1.33l1.19-1.57c.25,.38,.62,.7,1.11,.94,.49,.24,.97,.36,1.45,.36,.6,0,1.09-.2,1.48-.59,.39-.4,.58-.91,.58-1.53,0-.66-.24-1.2-.73-1.61s-1.14-.62-1.95-.62c-.88,0-1.57,.11-2.07,.32Z"/> 
<path class="cls-1" d="M193.84,81.68c0-1.08,.19-2.12,.56-3.11,.37-.99,.88-1.84,1.51-2.55,1.25-1.4,2.62-2.3,4.12-2.68l.85,1.57c-1.1,.34-2.07,.91-2.89,1.71-.82,.8-1.39,1.77-1.7,2.9,.56-.78,1.43-1.17,2.59-1.17,.98,0,1.82,.36,2.5,1.08,.68,.72,1.03,1.64,1.03,2.77,0,1.26-.41,2.27-1.22,3.02-.82,.74-1.76,1.12-2.84,1.12-1.38,0-2.47-.45-3.28-1.35-.82-.91-1.22-2.02-1.22-3.31Zm2.2,.02c0,.76,.21,1.37,.62,1.85,.41,.48,.98,.72,1.7,.72,.54,0,.98-.19,1.33-.56,.35-.37,.52-.83,.52-1.37,0-.61-.18-1.11-.54-1.49s-.86-.58-1.49-.58c-.97,0-1.69,.47-2.14,1.42Z"/> 
<path class="cls-1" d="M243.91,75.61h-5.44v-2.07h7.92v1.39l-4.46,11.21h-2.27l4.25-10.53Z"/> 
<path class="cls-1" d="M282.56,82.89c0-.77,.2-1.44,.59-2.01,.4-.57,.92-.96,1.57-1.18v-.05c-.53-.23-.96-.61-1.3-1.14-.34-.53-.5-1.15-.5-1.84,0-.97,.38-1.76,1.15-2.38,.77-.62,1.72-.94,2.84-.94s2.09,.31,2.86,.94c.78,.61,1.17,1.4,1.17,2.38,0,.64-.18,1.23-.53,1.77s-.83,.94-1.41,1.2v.05c.66,.14,1.21,.49,1.64,1.04,.43,.55,.65,1.21,.65,1.99,0,1.13-.41,2.02-1.24,2.66-.8,.65-1.84,.97-3.11,.97s-2.32-.31-3.13-.94c-.83-.64-1.24-1.48-1.24-2.52Zm4.55-2.18h-.31c-.56,0-1.04,.17-1.44,.5s-.59,.76-.59,1.29,.19,.94,.58,1.28c.39,.34,.91,.5,1.56,.5,.71,0,1.25-.16,1.63-.49,.38-.32,.56-.76,.55-1.3-.01-.55-.2-.99-.56-1.3-.36-.32-.83-.48-1.42-.48Zm-.34-2.07h.34c.46,0,.84-.16,1.15-.48,.31-.32,.47-.7,.47-1.14,0-.5-.17-.9-.5-1.18-.34-.28-.78-.42-1.33-.42s-.97,.15-1.3,.45c-.32,.3-.49,.68-.49,1.15,0,.44,.16,.83,.48,1.14,.32,.32,.71,.48,1.18,.48Z"/> 
<path class="cls-1" d="M24.51,105.94c0,2.33-.61,4.22-1.84,5.69-1.2,1.43-2.74,2.26-4.63,2.5l-.68-1.64c2.6-.52,4.17-1.98,4.7-4.39-.55,.76-1.35,1.13-2.39,1.13s-1.96-.37-2.7-1.12c-.73-.73-1.1-1.66-1.1-2.79,0-1.25,.43-2.26,1.28-3.04,.84-.77,1.81-1.15,2.9-1.15,1.38,0,2.47,.44,3.26,1.33,.8,.88,1.21,2.03,1.21,3.47Zm-2.2-.02c0-.79-.2-1.44-.61-1.95-.41-.51-.96-.76-1.66-.76-.58,0-1.05,.2-1.42,.59-.37,.38-.56,.85-.56,1.38,0,.59,.19,1.09,.58,1.49,.39,.41,.9,.61,1.52,.61,1,0,1.71-.46,2.14-1.37Z"/> 
<g>
  <path class="cls-1" d="M57.77,105.42l-1.1-1.71,3.22-2.41h1.49v12.64h-2.07v-9.68l-1.55,1.17Z"/> 
  <path class="cls-1" d="M68.26,101.19c1.4,0,2.45,.58,3.15,1.73,.71,1.16,1.06,2.74,1.06,4.72s-.35,3.62-1.06,4.75c-.71,1.13-1.75,1.69-3.11,1.69s-2.44-.57-3.17-1.71-1.1-2.72-1.1-4.73,.36-3.61,1.08-4.74c.72-1.13,1.77-1.7,3.15-1.7Zm-2.02,6.45c0,3.01,.68,4.52,2.05,4.52,.71,0,1.21-.35,1.52-1.06,.31-.71,.46-1.86,.46-3.46s-.16-2.73-.47-3.44c-.31-.71-.83-1.06-1.55-1.06s-1.22,.36-1.54,1.09c-.32,.73-.48,1.86-.48,3.41Z"/> 
</g> 
<g> 
  <path class="cls-1" d="M103.69,105.42l-1.1-1.71,3.22-2.41h1.49v12.64h-2.07v-9.68l-1.55,1.17Z"/> 
  <path class="cls-1" d="M110.69,105.42l-1.1-1.71,3.22-2.41h1.49v12.64h-2.07v-9.68l-1.55,1.17Z"/> 
</g> 
<g> 
  <path class="cls-1" d="M146.91,105.42l-1.1-1.71,3.22-2.41h1.49v12.64h-2.07v-9.68l-1.55,1.17Z"/> 
  <path class="cls-1" d="M161,113.93h-7.92v-1.66c1.45-1.42,2.45-2.44,3.01-3.08,1.49-1.7,2.23-3.14,2.23-4.3,0-.52-.14-.92-.41-1.21-.28-.29-.67-.43-1.19-.43-.92,0-1.53,.56-1.82,1.69l-1.73-.77c.17-.92,.59-1.65,1.27-2.19,.68-.53,1.52-.8,2.51-.8,1.13,0,2,.32,2.63,.97,.62,.64,.94,1.41,.94,2.32,0,.65-.14,1.34-.41,2.07-.28,.71-.59,1.33-.95,1.85-.37,.55-.81,1.09-1.31,1.62-.43,.48-.83,.89-1.19,1.22-.18,.17-.47,.42-.88,.76h5.24v1.93Z"/> 
</g> 
<g> 
  <path class="cls-1" d="M191.29,105.42l-1.1-1.71,3.22-2.41h1.49v12.64h-2.07v-9.68l-1.55,1.17Z"/> 
  <path class="cls-1" d="M201.19,114.13c-.92,0-1.74-.19-2.44-.57-.7-.38-1.22-.9-1.56-1.56l1.17-1.51c.71,1.04,1.61,1.57,2.7,1.57,.64,0,1.13-.16,1.49-.49,.36-.32,.54-.74,.54-1.26,0-.58-.21-1.02-.62-1.32-.41-.31-.99-.46-1.72-.46h-.9v-2.07h.81c.55,0,1.01-.16,1.39-.49s.56-.74,.56-1.24-.14-.86-.41-1.12-.67-.41-1.19-.41c-.97,0-1.76,.45-2.38,1.35l-1.15-1.46c.7-1.31,1.94-1.96,3.73-1.96,1.09,0,1.97,.29,2.63,.87,.66,.58,.99,1.36,.99,2.33,0,1.43-.64,2.42-1.93,2.99v.05c.76,.13,1.35,.47,1.77,1.02,.43,.55,.64,1.21,.64,1.99,0,1.14-.39,2.05-1.17,2.74-.78,.67-1.76,1.01-2.95,1.01Z"/> 
</g> 
<g> 
  <path class="cls-1" d="M235.41,105.42l-1.1-1.71,3.22-2.41h1.49v12.64h-2.07v-9.68l-1.55,1.17Z"/> 
  <path class="cls-1" d="M249.01,113.93h-2.07v-2.92h-5.76v-1.53l4.86-8.15h2.38l-4.55,7.61h3.08v-3.11h2.07v3.11h1.62v2.07h-1.62v2.92Z"/> 
</g> 
<g> 
  <path class="cls-1" d="M280.3,105.42l-1.1-1.71,3.22-2.41h1.49v12.64h-2.07v-9.68l-1.55,1.17Z"/> 
  <path class="cls-1" d="M287.27,108.03l.83-6.7h5.96v2.07h-4.14l-.36,2.5c.24-.05,.48-.07,.72-.07,1.15,0,2.09,.37,2.83,1.1,.76,.73,1.13,1.71,1.13,2.92,0,1.31-.41,2.35-1.24,3.13-.82,.77-1.85,1.15-3.1,1.15-.68,0-1.39-.16-2.11-.47-.67-.31-1.2-.76-1.58-1.33l1.19-1.57c.25,.38,.62,.7,1.11,.94,.49,.24,.97,.36,1.45,.36,.6,0,1.09-.2,1.48-.59,.39-.4,.58-.91,.58-1.53,0-.66-.24-1.2-.73-1.61s-1.14-.62-1.95-.62c-.88,0-1.57,.11-2.07,.32Z"/> 
</g> 
<g> 
  <path class="cls-1" d="M13.29,133.2l-1.1-1.71,3.22-2.41h1.49v12.64h-2.07v-9.68l-1.55,1.17Z"/> 
  <path class="cls-1" d="M19.6,137.25c0-1.08,.19-2.12,.56-3.1,.37-.99,.88-1.84,1.51-2.55,1.25-1.4,2.62-2.3,4.12-2.68l.85,1.57c-1.1,.34-2.07,.91-2.89,1.71-.82,.8-1.39,1.77-1.7,2.9,.56-.78,1.43-1.17,2.59-1.17,.98,0,1.82,.36,2.5,1.08s1.03,1.64,1.03,2.77c0,1.26-.41,2.27-1.22,3.02-.82,.74-1.76,1.12-2.84,1.12-1.38,0-2.47-.45-3.28-1.35-.82-.91-1.22-2.02-1.22-3.31Zm2.2,.02c0,.76,.21,1.37,.62,1.85,.41,.48,.98,.72,1.7,.72,.54,0,.98-.19,1.33-.56,.35-.37,.52-.83,.52-1.37,0-.61-.18-1.11-.54-1.49-.36-.38-.86-.58-1.49-.58-.97,0-1.69,.47-2.14,1.42Z"/> 
</g> 
<g> 
  <path class="cls-1" d="M58.28,133.2l-1.1-1.71,3.22-2.41h1.49v12.64h-2.07v-9.68l-1.55,1.17Z"/> 
  <path class="cls-1" d="M69.67,131.19h-5.44v-2.07h7.92v1.39l-4.46,11.21h-2.27l4.25-10.53Z"/> 
</g> 
<g> 
  <path class="cls-1" d="M101.79,133.2l-1.1-1.71,3.22-2.41h1.49v12.64h-2.07v-9.68l-1.55,1.17Z"/> 
  <path class="cls-1" d="M108.32,138.46c0-.77,.2-1.44,.59-2.01s.92-.96,1.57-1.18v-.05c-.53-.23-.96-.61-1.3-1.14-.34-.53-.5-1.15-.5-1.84,0-.97,.38-1.76,1.15-2.38,.77-.62,1.72-.94,2.84-.94s2.09,.31,2.86,.94c.78,.61,1.17,1.4,1.17,2.38,0,.64-.18,1.23-.53,1.77s-.83,.95-1.41,1.2v.05c.66,.14,1.21,.49,1.64,1.04s.65,1.21,.65,1.99c0,1.13-.41,2.02-1.24,2.66-.8,.65-1.84,.97-3.11,.97s-2.32-.31-3.13-.94c-.83-.64-1.24-1.48-1.24-2.52Zm4.55-2.18h-.31c-.56,0-1.04,.17-1.44,.5s-.59,.76-.59,1.29,.19,.94,.58,1.28c.39,.34,.91,.5,1.56,.5,.71,0,1.25-.16,1.63-.49,.38-.32,.56-.76,.55-1.3-.01-.55-.2-.99-.56-1.31-.36-.32-.83-.48-1.42-.48Zm-.34-2.07h.34c.46,0,.84-.16,1.15-.48,.31-.32,.47-.7,.47-1.14,0-.5-.17-.9-.5-1.18s-.78-.42-1.33-.42-.97,.15-1.3,.45c-.32,.3-.49,.68-.49,1.15s.16,.83,.48,1.14c.32,.32,.71,.48,1.18,.48Z"/> 
</g> 
<g> 
  <path class="cls-1" d="M146.63,133.2l-1.1-1.71,3.22-2.41h1.49v12.64h-2.07v-9.68l-1.55,1.17Z"/> 
  <path class="cls-1" d="M161.31,133.73c0,2.33-.61,4.22-1.84,5.69-1.2,1.43-2.74,2.26-4.63,2.5l-.68-1.64c2.6-.52,4.17-1.98,4.7-4.39-.55,.76-1.35,1.13-2.39,1.13s-1.96-.37-2.7-1.12c-.73-.73-1.1-1.66-1.1-2.79,0-1.25,.43-2.26,1.28-3.04,.84-.77,1.81-1.15,2.9-1.15,1.38,0,2.47,.44,3.26,1.33,.8,.88,1.21,2.03,1.21,3.47Zm-2.2-.02c0-.79-.2-1.44-.61-1.95-.41-.51-.96-.76-1.66-.76-.58,0-1.05,.2-1.42,.59-.37,.38-.56,.85-.56,1.39,0,.59,.19,1.09,.58,1.49,.39,.41,.9,.61,1.52,.61,1,0,1.71-.46,2.14-1.37Z"/> 
</g> 
<g> 
  <path class="cls-1" d="M196.95,141.72h-7.92v-1.66c1.45-1.42,2.45-2.44,3.01-3.08,1.49-1.7,2.23-3.14,2.23-4.3,0-.52-.14-.92-.41-1.21-.28-.29-.67-.43-1.19-.43-.92,0-1.53,.56-1.82,1.69l-1.73-.77c.17-.92,.59-1.65,1.27-2.19,.68-.53,1.52-.8,2.51-.8,1.13,0,2,.32,2.63,.97,.62,.64,.94,1.41,.94,2.32,0,.65-.14,1.34-.41,2.07-.28,.71-.59,1.33-.95,1.85-.37,.55-.81,1.09-1.31,1.62-.43,.48-.83,.89-1.19,1.22-.18,.17-.47,.42-.88,.76h5.24v1.93Z"/> 
  <path class="cls-1" d="M202.78,128.97c1.4,0,2.45,.58,3.15,1.73,.71,1.16,1.06,2.74,1.06,4.72s-.35,3.62-1.06,4.75c-.71,1.13-1.75,1.69-3.11,1.69s-2.44-.57-3.17-1.71c-.73-1.14-1.1-2.72-1.1-4.73s.36-3.61,1.08-4.74c.72-1.13,1.77-1.7,3.15-1.7Zm-2.02,6.44c0,3.01,.68,4.52,2.05,4.52,.71,0,1.21-.35,1.52-1.06s.46-1.86,.46-3.46-.16-2.73-.47-3.44c-.31-.71-.83-1.06-1.55-1.06s-1.22,.36-1.54,1.09c-.32,.73-.48,1.86-.48,3.41Z"/> 
</g> 
<g> 
  <path class="cls-1" d="M242.87,141.72h-7.92v-1.66c1.45-1.42,2.45-2.44,3.01-3.08,1.49-1.7,2.23-3.14,2.23-4.3,0-.52-.14-.92-.41-1.21-.28-.29-.67-.43-1.19-.43-.92,0-1.53,.56-1.82,1.69l-1.73-.77c.17-.92,.59-1.65,1.27-2.19,.68-.53,1.52-.8,2.51-.8,1.13,0,2,.32,2.63,.97,.62,.64,.94,1.41,.94,2.32,0,.65-.14,1.34-.41,2.07-.28,.71-.59,1.33-.95,1.85-.37,.55-.81,1.09-1.31,1.62-.43,.48-.83,.89-1.19,1.22-.18,.17-.47,.42-.88,.76h5.24v1.93Z"/> 
  <path class="cls-1" d="M245.21,133.2l-1.1-1.71,3.22-2.41h1.49v12.64h-2.07v-9.68l-1.55,1.17Z"/> 
</g> 
<g> 
  <path class="cls-1" d="M286.09,141.72h-7.92v-1.66c1.45-1.42,2.45-2.44,3.01-3.08,1.49-1.7,2.23-3.14,2.23-4.3,0-.52-.14-.92-.41-1.21-.28-.29-.67-.43-1.19-.43-.92,0-1.53,.56-1.82,1.69l-1.73-.77c.17-.92,.59-1.65,1.27-2.19,.68-.53,1.52-.8,2.51-.8,1.13,0,2,.32,2.63,.97,.62,.64,.94,1.41,.94,2.32,0,.65-.14,1.34-.41,2.07-.28,.71-.59,1.33-.95,1.85-.37,.55-.81,1.09-1.31,1.62-.43,.48-.83,.89-1.19,1.22-.18,.17-.47,.42-.88,.76h5.24v1.93Z"/>
  <path class="cls-1" d="M295.52,141.72h-7.92v-1.66c1.45-1.42,2.45-2.44,3.01-3.08,1.49-1.7,2.23-3.14,2.23-4.3,0-.52-.14-.92-.41-1.21-.28-.29-.67-.43-1.19-.43-.92,0-1.53,.56-1.82,1.69l-1.73-.77c.17-.92,.59-1.65,1.27-2.19,.68-.53,1.52-.8,2.51-.8,1.13,0,2,.32,2.63,.97,.62,.64,.94,1.41,.94,2.32,0,.65-.14,1.34-.41,2.07-.28,.71-.59,1.33-.95,1.85-.37,.55-.81,1.09-1.31,1.62-.43,.48-.83,.89-1.19,1.22-.18,.17-.47,.42-.88,.76h5.24v1.93Z"/> 
</g> 
<g> 
  <path class="cls-1" d="M108.44,169.51h-7.92v-1.66c1.45-1.42,2.45-2.44,3.01-3.08,1.49-1.7,2.23-3.14,2.23-4.3,0-.52-.14-.92-.41-1.21-.28-.29-.67-.43-1.19-.43-.92,0-1.53,.56-1.82,1.69l-1.73-.77c.17-.92,.59-1.65,1.27-2.19,.68-.53,1.52-.8,2.51-.8,1.13,0,2,.32,2.63,.97,.62,.64,.94,1.41,.94,2.32,0,.65-.14,1.34-.41,2.07-.28,.71-.59,1.33-.95,1.85-.37,.55-.81,1.09-1.31,1.62-.43,.48-.83,.89-1.19,1.22-.18,.17-.47,.42-.88,.76h5.24v1.93Z"/> 
  <path class="cls-1" d="M110.74,163.6l.83-6.7h5.96v2.07h-4.14l-.36,2.5c.24-.05,.48-.07,.72-.07,1.15,0,2.09,.37,2.83,1.1,.76,.73,1.13,1.7,1.13,2.92,0,1.31-.41,2.35-1.24,3.13-.82,.77-1.85,1.15-3.1,1.15-.68,0-1.39-.16-2.11-.47-.67-.31-1.2-.76-1.58-1.33l1.19-1.57c.25,.38,.62,.7,1.11,.94s.97,.36,1.45,.36c.6,0,1.09-.2,1.48-.59,.39-.4,.58-.91,.58-1.53,0-.66-.24-1.2-.73-1.61s-1.14-.62-1.95-.62c-.88,0-1.57,.11-2.07,.32Z"/> 
</g> 
<g> 
  <path class="cls-1" d="M152.47,169.51h-7.92v-1.66c1.45-1.42,2.45-2.44,3.01-3.08,1.49-1.7,2.23-3.14,2.23-4.3,0-.52-.14-.92-.41-1.21-.28-.29-.67-.43-1.19-.43-.92,0-1.53,.56-1.82,1.69l-1.73-.77c.17-.92,.59-1.65,1.27-2.19,.68-.53,1.52-.8,2.51-.8,1.13,0,2,.32,2.63,.97,.62,.64,.94,1.41,.94,2.32,0,.65-.14,1.34-.41,2.07-.28,.71-.59,1.33-.95,1.85-.37,.55-.81,1.09-1.31,1.62-.43,.48-.83,.89-1.19,1.22-.18,.17-.47,.42-.88,.76h5.24v1.93Z"/> 
  <path class="cls-1" d="M154.12,165.04c0-1.08,.19-2.12,.56-3.1,.37-.99,.88-1.84,1.51-2.55,1.25-1.4,2.62-2.3,4.12-2.68l.85,1.57c-1.1,.34-2.07,.91-2.89,1.71-.82,.8-1.39,1.77-1.7,2.9,.56-.78,1.43-1.17,2.59-1.17,.98,0,1.82,.36,2.5,1.08s1.03,1.64,1.03,2.77c0,1.26-.41,2.27-1.22,3.02-.82,.74-1.76,1.12-2.84,1.12-1.38,0-2.47-.45-3.28-1.35-.82-.91-1.22-2.02-1.22-3.31Zm2.2,.02c0,.76,.21,1.37,.62,1.85,.41,.48,.98,.72,1.7,.72,.54,0,.98-.19,1.33-.56,.35-.37,.52-.83,.52-1.37,0-.61-.18-1.11-.54-1.49-.36-.38-.86-.58-1.49-.58-.97,0-1.69,.47-2.14,1.42Z"/> 
</g> 
<g> 
  <path class="cls-1" d="M197.46,169.51h-7.92v-1.66c1.45-1.42,2.45-2.44,3.01-3.08,1.49-1.7,2.23-3.14,2.23-4.3,0-.52-.14-.92-.41-1.21-.28-.29-.67-.43-1.19-.43-.92,0-1.53,.56-1.82,1.69l-1.73-.77c.17-.92,.59-1.65,1.27-2.19,.68-.53,1.52-.8,2.51-.8,1.13,0,2,.32,2.63,.97,.62,.64,.94,1.41,.94,2.32,0,.65-.14,1.34-.41,2.07-.28,.71-.59,1.33-.95,1.85-.37,.55-.81,1.09-1.31,1.62-.43,.48-.83,.89-1.19,1.22-.18,.17-.47,.42-.88,.76h5.24v1.93Z"/> 
  <path class="cls-1" d="M204.19,158.98h-5.44v-2.07h7.92v1.39l-4.46,11.21h-2.27l4.25-10.53Z"/> 
</g> 
<g> 
  <path class="cls-1" d="M240.97,169.51h-7.92v-1.66c1.45-1.42,2.45-2.44,3.01-3.08,1.49-1.7,2.23-3.14,2.23-4.3,0-.52-.14-.92-.41-1.21-.28-.29-.67-.43-1.19-.43-.92,0-1.53,.56-1.82,1.69l-1.73-.77c.17-.92,.59-1.65,1.27-2.19,.68-.53,1.52-.8,2.51-.8,1.13,0,2,.32,2.63,.97,.62,.64,.94,1.41,.94,2.32,0,.65-.14,1.34-.41,2.07-.28,.71-.59,1.33-.95,1.85-.37,.55-.81,1.09-1.31,1.62-.43,.48-.83,.89-1.19,1.22-.18,.17-.47,.42-.88,.76h5.24v1.93Z"/> 
  <path class="cls-1" d="M242.84,166.25c0-.77,.2-1.44,.59-2.01s.92-.96,1.57-1.18v-.05c-.53-.23-.96-.61-1.3-1.14-.34-.53-.5-1.15-.5-1.84,0-.97,.38-1.76,1.15-2.38,.77-.62,1.72-.94,2.84-.94s2.09,.31,2.86,.94c.78,.61,1.17,1.4,1.17,2.38,0,.64-.18,1.23-.53,1.77s-.83,.95-1.41,1.2v.05c.66,.14,1.21,.49,1.64,1.04s.65,1.21,.65,1.99c0,1.13-.41,2.02-1.24,2.66-.8,.65-1.84,.97-3.11,.97s-2.32-.31-3.13-.94c-.83-.64-1.24-1.48-1.24-2.52Zm4.55-2.18h-.31c-.56,0-1.04,.17-1.44,.5s-.59,.76-.59,1.29,.19,.94,.58,1.28c.39,.34,.91,.5,1.56,.5,.71,0,1.25-.16,1.63-.49,.38-.32,.56-.76,.55-1.3-.01-.55-.2-.99-.56-1.31-.36-.32-.83-.48-1.42-.48Zm-.34-2.07h.34c.46,0,.84-.16,1.15-.48,.31-.32,.47-.7,.47-1.14,0-.5-.17-.9-.5-1.18s-.78-.42-1.33-.42-.97,.15-1.3,.45c-.32,.3-.49,.68-.49,1.15s.16,.83,.48,1.14c.32,.32,.71,.48,1.18,.48Z"/> 
</g> 
<g> 
  <path class="cls-1" d="M285.81,169.51h-7.92v-1.66c1.45-1.42,2.45-2.44,3.01-3.08,1.49-1.7,2.23-3.14,2.23-4.3,0-.52-.14-.92-.41-1.21-.28-.29-.67-.43-1.19-.43-.92,0-1.53,.56-1.82,1.69l-1.73-.77c.17-.92,.59-1.65,1.27-2.19,.68-.53,1.52-.8,2.51-.8,1.13,0,2,.32,2.63,.97,.62,.64,.94,1.41,.94,2.32,0,.65-.14,1.34-.41,2.07-.28,.71-.59,1.33-.95,1.85-.37,.55-.81,1.09-1.31,1.62-.43,.48-.83,.89-1.19,1.22-.18,.17-.47,.42-.88,.76h5.24v1.93Z"/> 
  <path class="cls-1" d="M295.83,161.51c0,2.33-.61,4.22-1.84,5.69-1.2,1.43-2.74,2.26-4.63,2.5l-.68-1.64c2.6-.52,4.17-1.98,4.7-4.39-.55,.76-1.35,1.13-2.39,1.13s-1.96-.37-2.7-1.12c-.73-.73-1.1-1.66-1.1-2.79,0-1.25,.43-2.26,1.28-3.04,.84-.77,1.81-1.15,2.9-1.15,1.38,0,2.47,.44,3.26,1.33,.8,.88,1.21,2.03,1.21,3.47Zm-2.2-.02c0-.79-.2-1.44-.61-1.95-.41-.51-.96-.76-1.66-.76-.58,0-1.05,.2-1.42,.59-.37,.38-.56,.85-.56,1.39,0,.59,.19,1.09,.58,1.49,.39,.41,.9,.61,1.52,.61,1,0,1.71-.46,2.14-1.37Z"/> 
</g> 
<g> 
  <path class="cls-1" d="M19.42,169.51h-7.92v-1.66c1.45-1.42,2.45-2.44,3.01-3.08,1.49-1.7,2.23-3.14,2.23-4.3,0-.52-.14-.92-.41-1.21-.28-.29-.67-.43-1.19-.43-.92,0-1.53,.56-1.82,1.69l-1.73-.77c.17-.92,.59-1.65,1.27-2.19,.68-.53,1.52-.8,2.51-.8,1.13,0,2,.32,2.63,.97,.62,.64,.94,1.41,.94,2.32,0,.65-.14,1.34-.41,2.07-.28,.71-.59,1.33-.95,1.85-.37,.55-.81,1.09-1.31,1.62-.43,.48-.83,.89-1.19,1.22-.18,.17-.47,.42-.88,.76h5.24v1.93Z"/> 
  <path class="cls-1" d="M24.66,169.7c-.92,0-1.74-.19-2.44-.57-.7-.38-1.22-.9-1.56-1.56l1.17-1.51c.71,1.04,1.61,1.57,2.7,1.57,.64,0,1.13-.16,1.49-.49,.36-.32,.54-.74,.54-1.26,0-.58-.21-1.02-.62-1.32-.41-.31-.99-.46-1.72-.46h-.9v-2.07h.81c.55,0,1.01-.16,1.39-.49,.37-.32,.56-.74,.56-1.24s-.14-.85-.41-1.12c-.28-.27-.67-.41-1.19-.41-.97,0-1.76,.45-2.38,1.35l-1.15-1.46c.7-1.31,1.94-1.96,3.73-1.96,1.09,0,1.97,.29,2.63,.87,.66,.58,.99,1.36,.99,2.33,0,1.43-.64,2.42-1.93,2.99v.05c.76,.13,1.35,.47,1.77,1.02,.43,.55,.64,1.21,.64,1.99,0,1.14-.39,2.05-1.17,2.74-.78,.67-1.76,1.01-2.95,1.01Z"/> 
</g> 
<g> 
  <path class="cls-1" d="M63.54,169.51h-7.92v-1.66c1.45-1.42,2.45-2.44,3.01-3.08,1.49-1.7,2.23-3.14,2.23-4.3,0-.52-.14-.92-.41-1.21-.28-.29-.67-.43-1.19-.43-.92,0-1.53,.56-1.82,1.69l-1.73-.77c.17-.92,.59-1.65,1.27-2.19,.68-.53,1.52-.8,2.51-.8,1.13,0,2,.32,2.63,.97,.62,.64,.94,1.41,.94,2.32,0,.65-.14,1.34-.41,2.07-.28,.71-.59,1.33-.95,1.85-.37,.55-.81,1.09-1.31,1.62-.43,.48-.83,.89-1.19,1.22-.18,.17-.47,.42-.88,.76h5.24v1.93Z"/> 
  <path class="cls-1" d="M72.49,169.51h-2.07v-2.92h-5.76v-1.53l4.86-8.15h2.38l-4.55,7.61h3.08v-3.11h2.07v3.11h1.62v2.07h-1.62v2.92Z"/> 
</g> 
<g>
  <path class="cls-1" d="M14.99,197.6c-.93,0-1.75-.19-2.45-.57-.71-.38-1.23-.9-1.57-1.56l1.18-1.51c.71,1.04,1.62,1.57,2.71,1.57,.64,0,1.14-.16,1.5-.49,.36-.32,.54-.74,.54-1.26,0-.58-.21-1.02-.62-1.32-.42-.31-.99-.46-1.73-.46h-.9v-2.07h.81c.55,0,1.02-.16,1.39-.49,.37-.32,.56-.74,.56-1.24s-.14-.85-.42-1.12c-.28-.27-.68-.4-1.19-.4-.98,0-1.77,.45-2.39,1.35l-1.16-1.46c.7-1.31,1.95-1.96,3.75-1.96,1.1,0,1.98,.29,2.64,.87,.66,.58,1,1.36,1,2.33,0,1.43-.65,2.42-1.94,2.99v.05c.76,.13,1.35,.47,1.78,1.02s.64,1.21,.64,1.99c0,1.14-.39,2.05-1.18,2.74-.78,.67-1.77,1.01-2.97,1.01Z"/>
  <path class="cls-1" d="M25.18,184.66c1.41,0,2.47,.58,3.17,1.73,.71,1.16,1.07,2.74,1.07,4.72s-.36,3.62-1.07,4.75c-.71,1.13-1.76,1.69-3.13,1.69s-2.45-.57-3.19-1.71c-.74-1.14-1.1-2.72-1.1-4.73s.36-3.61,1.09-4.74c.72-1.13,1.78-1.7,3.17-1.7Zm-2.03,6.44c0,3.01,.69,4.52,2.06,4.52,.71,0,1.22-.35,1.53-1.06,.31-.71,.46-1.86,.46-3.46s-.16-2.73-.47-3.44c-.31-.71-.83-1.06-1.56-1.06s-1.23,.36-1.55,1.09c-.32,.73-.48,1.86-.48,3.41Z"/> 
</g> 
<g> 
  <path class="cls-1" d="M61.16,197.6c-.93,0-1.75-.19-2.45-.57-.71-.38-1.23-.9-1.57-1.56l1.18-1.51c.71,1.04,1.62,1.57,2.71,1.57,.64,0,1.14-.16,1.5-.49,.36-.32,.54-.74,.54-1.26,0-.58-.21-1.02-.62-1.32-.42-.31-.99-.46-1.73-.46h-.9v-2.07h.81c.55,0,1.02-.16,1.39-.49,.37-.32,.56-.74,.56-1.24s-.14-.85-.42-1.12c-.28-.27-.68-.4-1.19-.4-.98,0-1.77,.45-2.39,1.35l-1.16-1.46c.7-1.31,1.95-1.96,3.75-1.96,1.1,0,1.98,.29,2.64,.87,.66,.58,1,1.36,1,2.33,0,1.43-.65,2.42-1.94,2.99v.05c.76,.13,1.35,.47,1.78,1.02s.64,1.21,.64,1.99c0,1.14-.39,2.05-1.18,2.74-.78,.67-1.77,1.01-2.97,1.01Z"/> <path class="cls-1" d="M67.84,188.89l-1.1-1.71,3.24-2.41h1.5v12.64h-2.08v-9.68l-1.56,1.17Z"/>
</g> 
</svg>