<svg xmlns="http://www.w3.org/2000/svg" viewBox="0 13.75 125.5999984741211 42.45000076293945" data-asc="0.89"><g fill="#ffffff"><g fill="#ffffff" transform="translate(0, 0)"><path d="M2.30 56.20Q1.25 56.20 1.25 55Q1.25 54 1.85 52.65Q2.35 51.55 2.95 50.48Q3.55 49.40 4.30 48.35Q6.80 44.95 9.20 42.20Q11.60 39.45 14.30 36.98Q17 34.50 20.30 32.10Q21 30.50 21.53 29.15Q22.05 27.80 22.30 26.65Q22.10 26.85 21 27.93Q19.90 29 17.90 30.90L14.80 33.80Q12.70 35.80 11.25 37.08Q9.80 38.35 8.25 39.50Q4.70 42.15 2.45 42.15Q1.90 42.15 1.75 42.10Q0 41.70 0 39.55Q0 37.90 1 35.45Q2 33 3.73 30.27Q5.45 27.55 7.30 25.30Q9.20 23 11.33 20.90Q13.45 18.80 15.60 17.13Q17.75 15.45 19.55 14.60Q21.35 13.75 23.40 13.75Q23.80 13.75 24.25 13.80Q24.70 13.85 25.20 13.95Q26.30 14.20 27.05 15.07Q27.80 15.95 27.80 17.20Q27.80 18.45 26.95 19.85Q26.55 20.45 25.90 20.92Q25.25 21.40 24.75 21.50L24.60 21.50Q24.15 21.50 24.15 21.15L24.15 21.05Q24.15 20.50 24.70 19.70Q25.80 18 25.80 16.60Q25.80 15.20 24.45 15.20Q23.20 15.20 20.65 16.65Q18.85 17.65 16.83 19.17Q14.80 20.70 12.83 22.45Q10.85 24.20 9.20 26Q7.55 27.80 6.03 30.05Q4.50 32.30 3.55 34.40Q2.50 36.70 2.50 38.10Q2.50 39.45 3.45 39.65Q3.70 39.70 3.90 39.73Q4.10 39.75 4.20 39.75Q5.85 39.75 7.65 38.55Q9.45 37.35 11.50 35.55Q13.70 33.50 15.68 31.52Q17.65 29.55 19.30 27.60L21.50 25L22.40 23.95Q22.70 23.60 23.30 23.60Q23.90 23.60 24.38 23.92Q24.85 24.25 24.80 24.70Q24.60 25.70 24.18 27.13Q23.75 28.55 23.05 30.35Q24.05 29.80 24.83 29.38Q25.60 28.95 26.15 28.70Q26.55 28.55 26.70 28.60Q26.85 28.60 26.85 28.75Q26.85 28.90 26.60 29.17Q26.35 29.45 25.90 29.65Q25.35 29.95 24.48 30.55Q23.60 31.15 22.35 32Q20.85 35.45 18.68 39.17Q16.50 42.90 13.88 46.38Q11.25 49.85 8.35 52.65Q7.50 53.45 6.38 54.27Q5.25 55.10 4.18 55.65Q3.10 56.20 2.30 56.20M5.05 53.15Q5.90 53.15 6.58 52.60Q7.25 52.05 7.60 51.70Q10.50 48.90 13.55 44.25Q16.60 39.60 19.25 34.30Q16.85 36.25 15.05 37.85Q13.25 39.45 11.78 41.02Q10.30 42.60 8.88 44.40Q7.45 46.20 5.80 48.50Q4.75 49.90 4.30 51.50Q4.25 51.65 4.23 51.85Q4.20 52.05 4.20 52.30Q4.20 53.15 5.05 53.15ZM25 45.05Q23.95 45.05 23.15 44.50Q21.85 43.50 21.85 41.50Q21.85 39.50 23.25 37.25Q24.65 35 27.50 33.10Q28 32.75 28.85 32.75Q29.95 32.75 30.83 33.35Q31.70 33.95 31.50 34.90Q31.15 36.45 29.98 37.65Q28.80 38.85 27.23 39.77Q25.65 40.70 24 41.55Q23.95 41.70 23.93 41.85Q23.90 42 23.90 42.15Q23.90 42.85 24.38 43.38Q24.85 43.90 25.70 43.90Q26.35 43.90 26.80 43.70Q27.60 43.40 28.13 43.15Q28.65 42.90 29.35 42.40Q30.05 41.90 31.25 40.90Q31.80 40.50 31.90 40.50Q32.20 40.50 32.10 40.95Q31.60 41.75 30.38 42.70Q29.15 43.65 27.68 44.35Q26.20 45.05 25 45.05M24.30 40.20Q24.70 40.20 25.95 39.40Q27.20 38.60 28.30 37.65Q30.20 35.90 30.20 34.95Q30.20 34.70 30.05 34.50Q29.90 34.25 29.60 34.25Q28.65 34.25 26.40 36.50Q24.85 38 24.30 40.20ZM32.30 45.30Q31.40 45.30 31.40 44.60Q31.40 44.15 31.72 43.45Q32.05 42.75 32.40 42.10Q33.35 40.40 34.15 38.80Q34.95 37.20 35.70 35.40Q36.05 34.60 36.75 34.60Q37.50 34.60 37.20 35.50Q36.90 36.25 36.60 36.85Q35.20 39.70 35.20 40.70Q35.20 41.15 35.50 41.25Q36.20 40.70 36.55 40.42Q36.90 40.15 36.95 40.10Q37.65 39.55 38.52 38.83Q39.40 38.10 40.45 37.15Q42.10 35.65 43.20 35.65Q44.55 35.65 44.35 38.10Q44.30 39.05 44.35 39.95Q44.40 40.15 44.40 40.52Q44.40 40.90 44.40 41.40Q44.40 41.90 45 41.90Q45.70 41.90 46.30 41.50L47.40 40.75L48.50 40.05Q48.60 40 48.85 40Q49.15 40 48.85 40.45Q45.70 44.35 43.65 44.35Q43.25 44.35 42.85 44.20Q42.50 44.05 42.35 43.33Q42.20 42.60 42.17 41.75Q42.15 40.90 42.15 40.45L42.20 38.80Q42.20 37.75 41.65 37.75Q40.35 37.75 35.25 43.10Q34.85 43.60 34 44.45Q33.15 45.30 32.30 45.30ZM49.45 49.15Q49.20 49.15 49.20 48.70Q49.20 48.60 49.22 48.42Q49.25 48.25 49.30 48.05L51.45 42.65L54 36.35Q53.40 36.30 52.25 36.38Q51.10 36.45 50.30 36.60Q50 36.65 49.82 36.67Q49.65 36.70 49.55 36.70Q49.15 36.70 49 36.35Q49.05 36.05 49.55 35.80Q49.80 35.70 50.15 35.63Q50.50 35.55 51 35.45Q51.55 35.35 51.97 35.30Q52.40 35.25 52.60 35.20Q52.85 35.15 53.10 35.10Q53.35 35.05 53.70 35Q54 34.95 54.35 34.90Q54.70 34.85 55.10 34.75Q55.50 34.20 56.30 32.80Q57.10 31.40 58.35 29.10Q59.35 27.25 59.97 26.18Q60.60 25.10 60.85 24.75Q61.30 24.15 61.90 24.15Q62.20 24.15 62.20 24.40Q62.20 24.45 61.95 25.05Q61.65 25.55 60.95 26.90Q60.25 28.25 59.45 29.85Q58.65 31.45 58 32.85Q57.35 34.25 57.10 34.90Q57.35 34.85 57.67 34.85Q58 34.85 58.50 34.85Q59.05 34.85 59.52 34.88Q60 34.90 60.35 34.95Q61.05 35.10 61.05 35.35Q61.05 35.45 60.60 35.70Q60.35 35.80 59.65 35.90Q58.95 36 57.80 36.10Q57.50 36.10 57.15 36.13Q56.80 36.15 56.40 36.20Q54.90 38.65 52.30 44.35Q51.35 46.25 50.85 47.30Q50.35 48.35 50.25 48.55Q49.80 49.15 49.45 49.15ZM59.20 47.80Q58.65 47.80 58.27 47.45Q57.90 47.10 57.95 46.60Q58.05 44.55 58.73 42.65Q59.40 40.75 60.70 38.10Q60.85 37.75 60.98 37.48Q61.10 37.20 61.20 37Q62.30 34.65 63.45 32.50Q64.60 30.35 65.75 28.30L66.45 27.05Q67.65 24.90 68.55 23.57Q69.45 22.25 70.35 21.65Q71.50 20.95 71.75 20.95Q72.15 20.95 72.55 21.65Q72.80 22.15 71.55 24.10Q70.90 25.10 69.92 26.60Q68.95 28.10 67.60 30Q67.35 30.35 66.78 31.23Q66.20 32.10 65.25 33.50Q64.30 34.90 63.60 36.02Q62.90 37.15 62.45 38Q61.55 39.65 60.75 41.52Q59.95 43.40 59.95 44.45Q59.95 45.40 60.70 45.40Q61.90 45.40 64.55 43.35Q64.85 43.40 64.85 43.65Q64.85 43.85 64.35 44.35Q63.90 44.80 63.23 45.33Q62.55 45.85 61.65 46.55L60.85 47.15Q60.05 47.80 59.20 47.80ZM69.60 45.05Q68.55 45.05 67.75 44.50Q66.45 43.50 66.45 41.50Q66.45 39.50 67.85 37.25Q69.25 35 72.10 33.10Q72.60 32.75 73.45 32.75Q74.55 32.75 75.42 33.35Q76.30 33.95 76.10 34.90Q75.75 36.45 74.57 37.65Q73.40 38.85 71.82 39.77Q70.25 40.70 68.60 41.55Q68.55 41.70 68.52 41.85Q68.50 42 68.50 42.15Q68.50 42.85 68.97 43.38Q69.45 43.90 70.30 43.90Q70.95 43.90 71.40 43.70Q72.20 43.40 72.72 43.15Q73.25 42.90 73.95 42.40Q74.65 41.90 75.85 40.90Q76.40 40.50 76.50 40.50Q76.80 40.50 76.70 40.95Q76.20 41.75 74.97 42.70Q73.75 43.65 72.27 44.35Q70.80 45.05 69.60 45.05M68.90 40.20Q69.30 40.20 70.55 39.40Q71.80 38.60 72.90 37.65Q74.80 35.90 74.80 34.95Q74.80 34.70 74.65 34.50Q74.50 34.25 74.20 34.25Q73.25 34.25 71 36.50Q69.45 38 68.90 40.20ZM76 46.15Q75.65 46.15 75.65 45.55Q75.65 45.05 75.88 44.35Q76.10 43.65 76.40 43.05Q76.85 42.20 77.75 40.05Q78.80 37.70 79.50 36.27Q80.20 34.85 80.85 34.10Q81.55 33.25 81.95 33.25Q82.20 33.25 82.35 33.58Q82.50 33.90 82.50 34.30Q82.50 34.70 82.40 34.80Q82 35.20 81.35 36.15Q80.70 37.10 80.15 38.05Q79.10 40 79.10 40.95Q79.10 41.05 79.13 41.15Q79.15 41.25 79.20 41.35Q79.80 41.05 80.30 40.75Q80.80 40.45 81.45 39.90L84.50 37.10Q85 36.65 85.40 36.35Q85.80 36.05 86.05 35.85Q86.55 35.50 87 35.50Q87.40 35.50 87.95 36Q88.20 36.25 88.20 37.35L88.20 38.60Q88.20 38.80 88.17 38.98Q88.15 39.15 88.15 39.35Q88.15 40 88.33 40.48Q88.50 40.95 88.85 40.95Q89 40.95 89.25 40.70L90.65 39.05Q92.40 37 93.35 36.05Q94.30 35.10 95.50 34.75Q95.65 34.70 95.78 34.67Q95.90 34.65 96 34.65Q96.45 34.65 96.78 34.95Q97.10 35.25 96.95 35.75Q96.75 36.55 96.42 37.58Q96.10 38.60 95.85 39.20Q95.25 40.40 95.25 41.10Q95.25 41.55 95.63 41.70Q96 41.85 96.38 41.90Q96.75 41.95 96.75 42.10Q97.75 41.75 98.25 41.75Q98.75 41.75 98.50 42.08Q98.25 42.40 97.60 42.85Q96.95 43.30 96.17 43.63Q95.40 43.95 94.80 43.95Q93.55 43.95 93.55 42.60Q93.55 41.90 93.75 41.30Q94.45 38.75 94.45 38Q94.45 37.25 94.05 37.25Q93.15 37.25 90.20 40.85Q89.90 41.20 89.53 41.60Q89.15 42 88.70 42.40Q88.10 42.95 87.55 43.55Q87.25 43.85 86.75 43.85Q85.70 43.85 85.60 43.10Q85.55 42.30 85.53 41.77Q85.50 41.25 85.50 41.05Q85.40 39.75 85.35 39.30Q85.30 38.85 84.90 38.85Q84.40 38.85 82.40 40.45Q79.70 42.60 77.45 45.25Q76.50 46.15 76 46.15ZM101.60 45.05Q100.55 45.05 99.75 44.50Q98.45 43.50 98.45 41.50Q98.45 39.50 99.85 37.25Q101.25 35 104.10 33.10Q104.60 32.75 105.45 32.75Q106.55 32.75 107.42 33.35Q108.30 33.95 108.10 34.90Q107.75 36.45 106.57 37.65Q105.40 38.85 103.82 39.77Q102.25 40.70 100.60 41.55Q100.55 41.70 100.52 41.85Q100.50 42 100.50 42.15Q100.50 42.85 100.97 43.38Q101.45 43.90 102.30 43.90Q102.95 43.90 103.40 43.70Q104.20 43.40 104.72 43.15Q105.25 42.90 105.95 42.40Q106.65 41.90 107.85 40.90Q108.40 40.50 108.50 40.50Q108.80 40.50 108.70 40.95Q108.20 41.75 106.97 42.70Q105.75 43.65 104.27 44.35Q102.80 45.05 101.60 45.05M100.90 40.20Q101.30 40.20 102.55 39.40Q103.80 38.60 104.90 37.65Q106.80 35.90 106.80 34.95Q106.80 34.70 106.65 34.50Q106.50 34.25 106.20 34.25Q105.25 34.25 103 36.50Q101.45 38 100.90 40.20ZM108.90 45.30Q108 45.30 108 44.60Q108 44.15 108.33 43.45Q108.65 42.75 109 42.10Q109.95 40.40 110.75 38.80Q111.55 37.20 112.30 35.40Q112.65 34.60 113.35 34.60Q114.10 34.60 113.80 35.50Q113.50 36.25 113.20 36.85Q111.80 39.70 111.80 40.70Q111.80 41.15 112.10 41.25Q112.80 40.70 113.15 40.42Q113.50 40.15 113.55 40.10Q114.25 39.55 115.13 38.83Q116 38.10 117.05 37.15Q118.70 35.65 119.80 35.65Q121.15 35.65 120.95 38.10Q120.90 39.05 120.95 39.95Q121 40.15 121 40.52Q121 40.90 121 41.40Q121 41.90 121.60 41.90Q122.30 41.90 122.90 41.50L124 40.75L125.10 40.05Q125.20 40 125.45 40Q125.75 40 125.45 40.45Q122.30 44.35 120.25 44.35Q119.85 44.35 119.45 44.20Q119.10 44.05 118.95 43.33Q118.80 42.60 118.78 41.75Q118.75 40.90 118.75 40.45L118.80 38.80Q118.80 37.75 118.25 37.75Q116.95 37.75 111.85 43.10Q111.45 43.60 110.60 44.45Q109.75 45.30 108.90 45.30Z"/></g></g></svg>