<svg xmlns="http://www.w3.org/2000/svg" viewBox="0 13.850000381469727 113.7249984741211 35.30000305175781">
  <g fill="#ffffff">
    <path
      d="M7.95 30.40Q7.45 30.40 6.85 30.15Q5.45 29.75 4 28.45Q2.45 27.10 1.35 25.22Q0.25 23.35 0.05 21.55Q0 21.35 0 21.05Q0 20.75 0 20.35Q0 13.85 8 13.85Q12.05 13.85 16.93 15.15Q21.80 16.45 28.15 18.60Q29.30 19 30.28 19.32Q31.25 19.65 32.05 19.90Q34 20.45 35.45 20.45Q37.10 20.45 37.83 19.80Q38.55 19.15 38.55 18.35L38.55 18.15Q38.55 17.55 38.90 17.55Q39.30 17.55 39.75 18.15Q39.85 18.25 39.85 18.55Q39.85 19.70 38.50 20.70Q37.15 21.70 35.15 21.70Q34.85 21.70 34.63 21.70Q34.40 21.70 34.20 21.65Q32.25 21.40 29.93 20.72Q27.60 20.05 24.20 18.90Q19.45 17.30 16.30 16.45Q13.15 15.60 10.45 15.60Q7.50 15.60 5.47 16.90Q3.45 18.20 2.50 21.15Q2.35 21.60 2.35 22.15Q2.35 23.10 2.80 24.27Q3.25 25.45 4 26.55Q4.75 27.65 5.60 28.43Q6.45 29.20 7.20 29.35Q8.40 29.60 8.40 30.15Q8.40 30.40 7.95 30.40M8.90 47.95Q7.75 47.95 7.85 46.45Q8.25 43.30 9.85 39.70Q10.65 37.85 12.18 34.92Q13.70 32 15.95 28.05Q17.50 25.25 18.48 23.70Q19.45 22.15 20.55 21.40Q21.50 20.75 22.35 20.75Q23.15 20.75 22.75 21.40Q21.95 22.50 20.83 24.17Q19.70 25.85 18.25 28.10Q16.35 31.10 14.55 34.20Q12.75 37.30 11.50 39.88Q10.25 42.45 9.85 44Q9.70 44.60 9.70 45Q9.70 45.85 10.40 45.85Q11.50 45.85 14.40 43.60Q14.50 43.50 14.65 43.50Q14.85 43.50 14.85 43.75Q14.85 44.05 14.65 44.25Q14.45 44.45 14.15 44.67Q13.85 44.90 13.45 45.20Q13.05 45.45 12.75 45.65Q12.45 45.85 12.35 45.95Q11.70 46.40 11.25 46.73Q10.80 47.05 10.55 47.25Q9.55 47.95 8.90 47.95ZM19.60 47.45Q18.55 47.45 18.70 46.40Q19 44.50 19.75 42.60Q20.15 41.60 20.78 40.30Q21.40 39 22.25 37.40Q22.70 36.55 23.03 35.90Q23.35 35.25 23.55 34.85Q23.90 34.15 24.28 33.35Q24.65 32.55 25.05 31.60Q26.95 27.45 28.33 25.07Q29.70 22.70 31.30 21.70Q31.40 21.60 31.85 21.67Q32.30 21.75 32.73 21.90Q33.15 22.05 33.25 22.25Q33.40 22.60 33.40 23.25Q33.40 25.25 31.55 28.05Q30.55 29.55 29.03 31.32Q27.50 33.10 25.45 35.15L24.55 36.60Q23.05 39 22.23 40.70Q21.40 42.40 21.60 43.70Q21.70 44 21.85 44Q22 44 22.35 43.75Q22.70 43.50 23.08 43.15Q23.45 42.80 23.80 42.30Q24.05 42.05 24.23 41.75Q24.40 41.45 24.60 41.20Q24.90 40.65 25.20 40.30Q26.15 38.70 26.80 38.05Q27.90 36.95 28.75 36.95Q29.75 36.95 30.53 38.02Q31.30 39.10 32.20 41.10Q32.85 42.60 33.40 43.40Q33.95 44.15 34.45 44.15Q34.95 44.15 35.60 43.55Q36.20 43 36.65 42.95Q36.95 43.30 36.60 43.83Q36.25 44.35 35.58 44.83Q34.90 45.30 34.25 45.60Q33.60 45.90 33.25 45.80Q31.85 45.40 31.08 44.38Q30.30 43.35 29.55 41.70Q29.30 41.15 29.10 40.73Q28.90 40.30 28.70 40.05Q28.35 39.55 27.75 39.55Q27.30 39.55 26.70 40Q26.10 40.50 25.50 41.17Q24.90 41.85 24.35 42.80Q24 43.30 23.83 43.58Q23.65 43.85 23.55 43.95Q23.30 44.30 22.78 44.98Q22.25 45.65 21.55 46.65Q21.30 46.95 20.78 47.20Q20.25 47.45 19.75 47.45L19.60 47.45M25.70 33.10Q25.85 33.20 26.45 32.63Q27.05 32.05 27.83 31.13Q28.60 30.20 29.38 29.17Q30.15 28.15 30.60 27.35Q32.15 24.70 32.15 23.85Q32.15 23.50 31.90 23.35Q31.40 22.95 30.55 23.77Q29.70 24.60 28.85 25.93Q28 27.25 27.40 28.55Q27.05 29.35 26.68 30.35Q26.30 31.35 26.05 32.13Q25.80 32.90 25.70 33.10ZM40.55 45.05Q39.50 45.05 38.70 44.50Q37.40 43.50 37.40 41.50Q37.40 39.50 38.80 37.25Q40.20 35 43.05 33.10Q43.55 32.75 44.40 32.75Q45.50 32.75 46.38 33.35Q47.25 33.95 47.05 34.90Q46.70 36.45 45.52 37.65Q44.35 38.85 42.77 39.77Q41.20 40.70 39.55 41.55Q39.50 41.70 39.47 41.85Q39.45 42 39.45 42.15Q39.45 42.85 39.92 43.38Q40.40 43.90 41.25 43.90Q41.90 43.90 42.35 43.70Q43.15 43.40 43.67 43.15Q44.20 42.90 44.90 42.40Q45.60 41.90 46.80 40.90Q47.35 40.50 47.45 40.50Q47.75 40.50 47.65 40.95Q47.15 41.75 45.92 42.70Q44.70 43.65 43.22 44.35Q41.75 45.05 40.55 45.05M39.85 40.20Q40.25 40.20 41.50 39.40Q42.75 38.60 43.85 37.65Q45.75 35.90 45.75 34.95Q45.75 34.70 45.60 34.50Q45.45 34.25 45.15 34.25Q44.20 34.25 41.95 36.50Q40.40 38 39.85 40.20ZM61.50 33.55Q60.85 33.55 60.85 33.25Q60.85 33 61.22 32.52Q61.60 32.05 62.10 31.70Q63.20 31 63.82 30.50Q64.45 30 65.35 28.80Q65.40 28.90 65.40 29.20Q65.40 29.85 64.88 30.77Q64.35 31.70 63.70 32.45Q63.05 33.20 62.55 33.40Q62.10 33.55 61.50 33.55M57.05 45.80Q56.65 45.80 56.30 45.50Q55.95 45.20 55.95 44.70Q55.95 43.65 57.40 40.85L57.95 39.75Q58.05 39.65 58.22 39.25Q58.40 38.85 58.75 38.20Q59.10 37.50 59.30 36.95Q59.50 36.40 59.60 35.90Q59.60 35.85 59.80 35.70Q60.00 35.55 60.20 35.45L60.50 35.40Q60.90 35.40 61.17 35.55Q61.45 35.70 61.35 35.95Q61 36.70 60.75 37.25Q60.50 37.80 60.35 38.20L60.30 38.20Q59.75 39.45 59.37 40.58Q59.00 41.70 59.05 42.70L59.10 44.05Q59.05 44.55 58.75 44.90Q58.55 45.05 58.20 45.27Q57.85 45.50 57.30 45.75Q57.25 45.80 57.05 45.80ZM62.05 45.30Q61.15 45.30 61.15 44.60Q61.15 44.15 61.48 43.45Q61.80 42.75 62.15 42.10Q63.10 40.40 63.90 38.80Q64.70 37.20 65.45 35.40Q65.80 34.60 66.50 34.60Q67.25 34.60 66.95 35.50Q66.65 36.25 66.35 36.85Q64.95 39.70 64.95 40.70Q64.95 41.15 65.25 41.25Q65.95 40.70 66.30 40.42Q66.65 40.15 66.70 40.10Q67.40 39.55 68.28 38.83Q69.15 38.10 70.20 37.15Q71.85 35.65 72.95 35.65Q74.30 35.65 74.10 38.10Q74.05 39.05 74.10 39.95Q74.15 40.15 74.15 40.52Q74.15 40.90 74.15 41.40Q74.15 41.90 74.75 41.90Q75.45 41.90 76.05 41.50L77.15 40.75L78.25 40.05Q78.35 40 78.60 40Q78.90 40 78.60 40.45Q75.45 44.35 73.40 44.35Q73 44.35 72.60 44.20Q72.25 44.05 72.10 43.33Q71.95 42.60 71.92 41.75Q71.90 40.90 71.90 40.45L71.95 38.80Q71.95 37.75 71.40 37.75Q70.10 37.75 65 43.10Q64.60 43.60 63.75 44.45Q62.90 45.30 62.05 45.30ZM79.75 46.30Q78.65 46.30 78.85 43.60Q78.95 43 79.27 41.70Q79.60 40.40 80.10 38.83Q80.60 37.25 81.05 36Q81.35 35.15 82.13 34.40Q82.90 33.65 83.40 33.65Q83.70 33.65 83.70 34.05Q83.70 34.60 83.10 35.75Q82.35 37.15 81.90 38.13Q81.45 39.10 81.17 40.08Q80.90 41.05 80.60 42.45L80.60 42.90Q80.60 44.50 81.30 43.90Q82.60 42.85 84 41.42Q85.40 40 86.65 38.55Q87.90 37.10 88.65 36Q89.15 35.20 89.83 34.77Q90.50 34.35 90.40 34.65Q90.35 35.10 89.58 36.30Q88.80 37.50 87.67 38.98Q86.55 40.45 85.38 41.80Q84.20 43.15 83.30 43.90Q82.95 44.25 82.27 44.83Q81.60 45.40 80.90 45.85Q80.20 46.30 79.75 46.30ZM93.35 33.55Q92.70 33.55 92.70 33.25Q92.70 33 93.08 32.52Q93.45 32.05 93.95 31.70Q95.05 31 95.67 30.50Q96.30 30 97.20 28.80Q97.25 28.90 97.25 29.20Q97.25 29.85 96.72 30.77Q96.20 31.70 95.55 32.45Q94.90 33.20 94.40 33.40Q93.95 33.55 93.35 33.55M88.90 45.80Q88.50 45.80 88.15 45.50Q87.80 45.20 87.80 44.70Q87.80 43.65 89.25 40.85L89.80 39.75Q89.90 39.65 90.08 39.25Q90.25 38.85 90.60 38.20Q90.95 37.50 91.15 36.95Q91.35 36.40 91.45 35.90Q91.45 35.85 91.65 35.70Q91.85 35.55 92.05 35.45L92.35 35.40Q92.75 35.40 93.02 35.55Q93.30 35.70 93.20 35.95Q92.85 36.70 92.60 37.25Q92.35 37.80 92.20 38.20L92.15 38.20Q91.60 39.45 91.22 40.58Q90.85 41.70 90.90 42.70L90.95 44.05Q90.90 44.55 90.60 44.90Q90.40 45.05 90.05 45.27Q89.70 45.50 89.15 45.75Q89.10 45.80 88.90 45.80ZM94.15 49.15Q93.90 49.15 93.90 48.70Q93.90 48.60 93.92 48.42Q93.95 48.25 94 48.05L96.15 42.65L98.70 36.35Q98.10 36.30 96.95 36.38Q95.80 36.45 95 36.60Q94.70 36.65 94.53 36.67Q94.35 36.70 94.25 36.70Q93.85 36.70 93.70 36.35Q93.75 36.05 94.25 35.80Q94.50 35.70 94.85 35.63Q95.20 35.55 95.70 35.45Q96.25 35.35 96.67 35.30Q97.10 35.25 97.30 35.20Q97.55 35.15 97.80 35.10Q98.05 35.05 98.40 35Q98.70 34.95 99.05 34.90Q99.40 34.85 99.80 34.75Q100.20 34.20 101 32.80Q101.80 31.40 103.05 29.10Q104.05 27.25 104.67 26.18Q105.30 25.10 105.55 24.75Q106 24.15 106.60 24.15Q106.90 24.15 106.90 24.40Q106.90 24.45 106.65 25.05Q106.35 25.55 105.65 26.90Q104.95 28.25 104.15 29.85Q103.35 31.45 102.70 32.85Q102.05 34.25 101.80 34.90Q102.05 34.85 102.38 34.85Q102.70 34.85 103.20 34.85Q103.75 34.85 104.22 34.88Q104.70 34.90 105.05 34.95Q105.75 35.10 105.75 35.35Q105.75 35.45 105.30 35.70Q105.05 35.80 104.35 35.90Q103.65 36 102.50 36.10Q102.20 36.10 101.85 36.13Q101.50 36.15 101.10 36.20Q99.60 38.65 97 44.35Q96.05 46.25 95.55 47.30Q95.05 48.35 94.95 48.55Q94.50 49.15 94.15 49.15ZM106.60 45.05Q105.55 45.05 104.75 44.50Q103.45 43.50 103.45 41.50Q103.45 39.50 104.85 37.25Q106.25 35 109.10 33.10Q109.60 32.75 110.45 32.75Q111.55 32.75 112.42 33.35Q113.30 33.95 113.10 34.90Q112.75 36.45 111.57 37.65Q110.40 38.85 108.82 39.77Q107.25 40.70 105.60 41.55Q105.55 41.70 105.52 41.85Q105.50 42 105.50 42.15Q105.50 42.85 105.97 43.38Q106.45 43.90 107.30 43.90Q107.95 43.90 108.40 43.70Q109.20 43.40 109.72 43.15Q110.25 42.90 110.95 42.40Q111.65 41.90 112.85 40.90Q113.40 40.50 113.50 40.50Q113.80 40.50 113.70 40.95Q113.20 41.75 111.97 42.70Q110.75 43.65 109.27 44.35Q107.80 45.05 106.60 45.05M105.90 40.20Q106.30 40.20 107.55 39.40Q108.80 38.60 109.90 37.65Q111.80 35.90 111.80 34.95Q111.80 34.70 111.65 34.50Q111.50 34.25 111.20 34.25Q110.25 34.25 108 36.50Q106.45 38 105.90 40.20Z" />
  </g>
</svg>