<svg xmlns="http://www.w3.org/2000/svg" viewBox="0 14.25 86.80000305175781 37" data-asc="0.89"><g fill="#ffffff"><g fill="#ffffff" transform="translate(0, 0)"><path d="M1.35 51.25Q1 51.25 0.70 51.10Q0 50.65 0 49.85Q0 49.50 0.15 49.20Q0.45 48.60 1.50 47.70Q2.55 46.80 3.75 46.10Q4.25 45.45 4.55 44.90Q4.85 44.35 5 43.95Q6.15 41.85 7.35 40.05Q8.55 38.25 9.75 36.70Q8.55 35.85 8.55 34.30Q8.55 33 9.20 31.65Q9.60 30.80 9.90 30.60Q10.25 30.40 10.35 30.50Q10.45 30.50 10.45 30.90Q10.45 31.25 10.20 31.85Q10 32.20 10 32.80Q10 34.05 11.15 34.90Q11.95 33.95 12.60 33Q14.60 30.40 16.40 28.18Q18.20 25.95 19.90 24.05Q22.10 21.55 24.70 19.30Q27.30 17.05 30 15.65Q32.70 14.25 35.20 14.25Q37 14.25 38.08 14.95Q39.15 15.65 39.15 17Q39.15 18.10 38.30 19.65Q37.40 21.20 35.88 23.05Q34.35 24.90 32.15 27.05Q29.25 29.95 25.98 32.38Q22.70 34.80 19.52 36.27Q16.35 37.75 13.70 37.75Q12.10 37.75 11.05 37.25Q9.80 38.85 8.70 40.48Q7.60 42.10 6.65 43.70Q6.60 44.05 5.95 45.10Q8.35 43.80 11.75 42.95Q15.15 42.10 18.88 41.65Q22.60 41.20 25.85 41.25Q27.90 41.25 28.98 42.23Q30.05 43.20 30.05 44.50Q30.05 44.65 30.02 44.85Q30 45.05 29.95 45.30Q29.90 46.10 29.58 46.73Q29.25 47.35 28.85 47.35Q28.30 47.35 28.15 45.85Q27.80 44.55 27.20 43.90Q26.60 43.25 24.90 43.25Q13 43.35 4.85 47.75Q4.45 48.55 4.05 49.15Q3.65 49.75 3.30 50.15Q2.35 51.25 1.35 51.25M14.60 35.80Q18.40 35.80 22.90 33.10Q25.90 31.30 28.63 28.92Q31.35 26.55 33.52 24Q35.70 21.45 36.95 19.25Q37.75 17.85 37.75 17Q37.75 15.90 36.30 15.90Q35.80 15.90 35.10 16.05Q31.90 16.70 27.50 20.20Q24.60 22.50 21.83 25.17Q19.05 27.85 16.63 30.52Q14.20 33.20 12.35 35.50Q13.50 35.80 14.60 35.80ZM40.70 45.85Q40.60 45.85 40.50 45.83Q40.40 45.80 40.30 45.75Q39.60 45.40 39.40 44.75Q39.20 44.10 39.30 43.10Q39.40 42.70 39.52 41.70Q39.65 40.70 39.85 40.10L37.30 42.55L35.90 43.90Q34.45 45.35 33.50 45.35Q33.10 45.35 32.85 45.05Q32.40 44.50 32.40 43.70Q32.40 42.65 32.95 41.45Q33.50 40.25 34.25 39.13Q35 38 35.60 37.25Q37.10 35.40 38.52 34.35Q39.95 33.30 41.50 33.30Q42.35 33.30 43.17 33.60Q44 33.90 44.70 34.60L44.75 34.65Q44.75 34.80 44.50 34.95Q44.40 35.05 44.33 35.10Q44.25 35.15 44.20 35.20Q43.60 35.80 42.85 37.20Q42.10 38.60 41.55 40.13Q41 41.65 41 42.75Q41 43.75 41.50 44.10Q41.75 44.25 42.05 44.25Q42.70 44.25 43.85 43.45Q43.90 43.40 44.08 43.27Q44.25 43.15 44.60 42.90Q45 42.60 45.25 42.60Q45.50 42.60 45.50 42.80Q45.50 43.10 45.10 43.50Q44.80 43.75 44.42 44.05Q44.05 44.35 43.55 44.65Q42.80 45.20 42 45.52Q41.20 45.85 40.70 45.85M35.05 42.65Q36.10 42.65 38.95 39.55Q39.70 38.70 40.30 37.92Q40.90 37.15 41.40 36.40Q42.30 34.95 42 34.40Q41.85 34.10 41.40 34.10Q40.85 34.10 39.90 34.67Q38.95 35.25 37.98 36.15Q37 37.05 36.20 37.95Q35.65 38.65 35.10 39.90Q34.55 41.15 34.55 41.95Q34.55 42.65 35.05 42.65ZM55.80 48.25Q55.05 48.25 54.70 47.50Q54.65 47.45 54.65 47.20Q54.65 46.95 54.90 46.05Q55 45.80 55.08 45.55Q55.15 45.30 55.25 45.05Q55.35 44.80 55.45 44.48Q55.55 44.15 55.65 43.80Q55.85 43.05 55.85 42.55Q55.85 41.85 55.40 41.85Q55.25 41.85 54.85 42.10Q54.20 42.60 53.48 43.05Q52.75 43.50 51.95 43.90L50.35 44.75L49.30 45.35Q49.15 45.40 48.60 45.80Q48.10 46.10 47.55 46.10Q46.90 46.10 46.10 45.40Q45.50 44.80 45.50 44.15Q45.50 43.60 46.05 42.60Q46.45 41.95 47.40 41Q47.80 40.60 48.08 40.27Q48.35 39.95 48.55 39.75Q50.65 36.95 55.05 34.80Q56.30 34.15 57.30 34.15Q58.40 34.15 59.05 35.05Q59.35 34.45 60.02 33.33Q60.70 32.20 61.52 30.85Q62.35 29.50 63.13 28.30Q63.90 27.10 64.35 26.45Q65.70 24.60 66.55 23.65Q67.40 22.75 68.10 22.75Q68.35 22.75 68.75 23Q69.10 23.30 69.10 23.80Q69.10 24.55 68.45 25.55Q67.80 26.55 66.65 28Q66.55 28.15 66.35 28.38Q66.15 28.60 65.90 28.95Q65.35 29.75 64.75 30.63Q64.15 31.50 63.45 32.35Q62.45 33.65 61.35 35.17Q60.25 36.70 59.30 38.35Q58.45 39.85 57.85 41.42Q57.25 43 56.85 44.60Q56.80 44.95 56.77 45.17Q56.75 45.40 56.75 45.50L56.80 46.25Q56.85 46.40 56.85 46.95Q56.85 48.25 55.80 48.25M48.95 43.95Q49.50 43.95 49.95 43.75Q51.85 43.10 53.55 42.10Q55.25 41.10 57.15 39.40Q57.40 38.70 57.75 37.90Q58.10 37.10 58.50 36.15Q57.90 34.90 56.75 34.90Q56 34.90 55.15 35.40Q54.30 35.90 53.25 36.75Q52.25 37.55 51.23 38.55Q50.20 39.55 49.45 40.48Q48.70 41.40 48.40 42Q48.10 42.50 48.10 43.15Q48.10 43.95 48.95 43.95ZM66.60 33.55Q65.95 33.55 65.95 33.25Q65.95 33 66.33 32.52Q66.70 32.05 67.20 31.70Q68.30 31 68.92 30.50Q69.55 30 70.45 28.80Q70.50 28.90 70.50 29.20Q70.50 29.85 69.97 30.77Q69.45 31.70 68.80 32.45Q68.15 33.20 67.65 33.40Q67.20 33.55 66.60 33.55M62.15 45.80Q61.75 45.80 61.40 45.50Q61.05 45.20 61.05 44.70Q61.05 43.65 62.50 40.85L63.05 39.75Q63.15 39.65 63.32 39.25Q63.50 38.85 63.85 38.20Q64.20 37.50 64.40 36.95Q64.60 36.40 64.70 35.90Q64.70 35.85 64.90 35.70Q65.10 35.55 65.30 35.45L65.60 35.40Q66 35.40 66.27 35.55Q66.55 35.70 66.45 35.95Q66.10 36.70 65.85 37.25Q65.60 37.80 65.45 38.20L65.40 38.20Q64.85 39.45 64.47 40.58Q64.10 41.70 64.15 42.70L64.20 44.05Q64.15 44.55 63.85 44.90Q63.65 45.05 63.30 45.27Q62.95 45.50 62.40 45.75Q62.35 45.80 62.15 45.80ZM69.75 45.05Q68.70 45.05 67.90 44.50Q66.60 43.50 66.60 41.50Q66.60 39.50 68 37.25Q69.40 35 72.25 33.10Q72.75 32.75 73.60 32.75Q74.70 32.75 75.58 33.35Q76.45 33.95 76.25 34.90Q75.90 36.45 74.72 37.65Q73.55 38.85 71.97 39.77Q70.40 40.70 68.75 41.55Q68.70 41.70 68.67 41.85Q68.65 42 68.65 42.15Q68.65 42.85 69.13 43.38Q69.60 43.90 70.45 43.90Q71.10 43.90 71.55 43.70Q72.35 43.40 72.88 43.15Q73.40 42.90 74.10 42.40Q74.80 41.90 76 40.90Q76.55 40.50 76.65 40.50Q76.95 40.50 76.85 40.95Q76.35 41.75 75.13 42.70Q73.90 43.65 72.42 44.35Q70.95 45.05 69.75 45.05M69.05 40.20Q69.45 40.20 70.70 39.40Q71.95 38.60 73.05 37.65Q74.95 35.90 74.95 34.95Q74.95 34.70 74.80 34.50Q74.65 34.25 74.35 34.25Q73.40 34.25 71.15 36.50Q69.60 38 69.05 40.20ZM75.50 46.60Q74.70 46.60 74.10 46.45Q73.55 46.30 73.55 46.05Q73.55 45.65 74.35 45.60Q75.10 45.55 75.35 45.45Q75.80 45.35 76.40 45.30Q76.95 45.20 77.30 45.15Q79.70 44.45 79.70 43Q79.70 42 78.65 40.45Q78 39.50 78 38.35Q78 36.95 78.88 35.60Q79.75 34.25 81.08 33.23Q82.40 32.20 83.75 31.85Q84.35 31.70 85 31.70Q86.05 31.70 86.50 32.20Q86.80 32.50 86.80 33.50Q86.80 34.25 86.55 35.02Q86.30 35.80 85.85 36.30Q85.60 36.55 85.45 36.55Q85.20 36.55 85.20 35.85L85.25 34.85Q85.30 34.45 85.33 34.15Q85.35 33.85 85.35 33.65Q85.35 32.80 85 32.65Q84.60 32.55 84.45 32.55Q83.40 32.55 82.20 33.50Q81 34.45 80.25 35.70Q79.95 36.15 79.95 36.80Q79.95 37.60 80.38 38.67Q80.80 39.75 81 40.25Q81.50 41.35 81.78 42.15Q82.05 42.95 82.05 43.55Q82.05 43.85 82 44Q82.25 43.90 83.20 43.70Q84.05 43.50 84.65 43.50Q85 43.50 85 43.65Q85 43.70 84.70 44Q84.55 44.15 83.78 44.48Q83 44.80 81.98 45.15Q80.95 45.50 79.95 45.80Q78.95 46.10 78.25 46.25Q77.05 46.60 75.50 46.60Z"/></g></g></svg>