<svg xmlns="http://www.w3.org/2000/svg" viewBox="0 13.899999618530273 104.58333587646484 37.69999694824219" data-asc="0.89"><g fill="#ffffff"><g fill="#ffffff" transform="translate(0, 0)"><path d="M48.35 47.55Q46.85 47.55 45.93 46.13Q45.00 44.70 45.20 42.75Q45.45 40.35 46.38 37.08Q47.30 33.80 48.68 30.17Q50.05 26.55 51.60 23.15Q50.95 24.05 50.03 25.32Q49.10 26.60 47.95 28.25L47.05 29.55Q45.90 31.20 44.95 32.50Q44.00 33.80 43.25 34.80Q43.15 34.90 42.83 35.33Q42.50 35.75 41.95 36.45Q41.40 37.15 40.78 37.88Q40.15 38.60 39.50 39.30Q36.50 42.65 35.45 42.65Q33.95 42.70 33.20 41.30Q32.45 39.90 32.45 37.45Q32.45 36.45 32.60 35.25Q33 31.45 34.70 25.40L35.85 21.30Q36.10 20.45 36.20 19.75Q36.30 19.05 36.35 18.45Q36.35 17.80 36.78 17.52Q37.20 17.25 37.85 17.25Q38.55 17.25 39.13 17.55Q39.70 17.85 39.65 18.20Q39.50 19.15 39.25 20.15Q39.00 21.15 38.65 22.25Q38.55 22.65 38.28 23.30Q38.00 23.95 37.60 24.80L37 26.15Q35.90 28.60 35.25 30.75Q34.60 32.90 34.35 35.15Q34.30 35.35 34.30 35.67Q34.30 36 34.30 36.40Q34.30 37.90 34.83 38.52Q35.35 39.15 36.50 39.20Q37 39.20 37.83 38.65Q38.65 38.10 39.55 37.30Q40.45 36.50 41.28 35.63Q42.10 34.75 42.60 34.10Q45.60 30.30 48.13 26.72Q50.65 23.15 52.43 20.05Q54.20 16.95 54.90 14.65Q55.15 13.90 56.10 13.90Q56.85 13.90 57.45 14.40Q58.05 14.90 57.75 15.50L56.90 17.15Q55.55 19.80 54.33 22.17Q53.10 24.55 52.15 26.75L52.10 26.70Q50.05 31.40 48.88 35.33Q47.70 39.25 47.35 42.45Q47.25 43.90 47.73 45Q48.20 46.10 49.15 46.10Q50.40 46.10 51.80 44.30Q52.30 43.65 52.70 43.80Q52.85 43.95 52.85 44.05Q52.85 44.30 52.65 44.50Q51.60 46.05 50.48 46.80Q49.35 47.55 48.35 47.55M7.20 50.35Q3.90 50.35 1.95 48.23Q0 46.10 0 42.30Q0 37.05 3.80 30.20Q6.40 25.50 9.58 23.22Q12.75 20.95 15.65 20.95Q18.20 20.95 19.88 22.50Q21.55 24.05 21.55 26.45Q21.55 28.25 20.53 30.20Q19.50 32.15 17.40 34.10Q17.15 34.35 16.90 34.35Q16.65 34.35 16.65 34.05Q16.65 33.75 17.05 33.35Q18.55 31.80 19.30 30.23Q20.05 28.65 20.05 27.25Q20.05 25.25 18.75 23.97Q17.45 22.70 15.45 22.70Q13.05 22.70 10.43 24.67Q7.80 26.65 5.50 30.80Q1.80 37.65 1.80 42.45Q1.80 45.50 3.27 47.20Q4.75 48.90 7.35 48.90Q9.70 48.90 12.60 47.50Q15.50 46.10 18.75 43.25Q23.25 39.25 27.00 33.80Q28.90 31.05 29.90 29.60Q30.90 28.15 31 28Q31.80 26.90 32.70 25.63Q33.60 24.35 34.60 22.85Q34.75 22.60 34.90 22.90Q35.15 23.30 34.95 23.55Q33.80 25.25 32.38 27.63Q30.95 30 29.15 32.95L28.25 34.40L28.30 34.40Q24.30 40.60 19.35 44.75Q16.05 47.55 12.93 48.95Q9.80 50.35 7.20 50.35ZM61.40 45.85Q61.30 45.85 61.20 45.83Q61.10 45.80 61 45.75Q60.30 45.40 60.10 44.75Q59.90 44.10 60 43.10Q60.10 42.70 60.23 41.70Q60.35 40.70 60.55 40.10L58 42.55L56.60 43.90Q55.15 45.35 54.20 45.35Q53.80 45.35 53.55 45.05Q53.10 44.50 53.10 43.70Q53.10 42.65 53.65 41.45Q54.20 40.25 54.95 39.13Q55.70 38 56.30 37.25Q57.80 35.40 59.23 34.35Q60.65 33.30 62.20 33.30Q63.05 33.30 63.88 33.60Q64.70 33.90 65.40 34.60L65.45 34.65Q65.45 34.80 65.20 34.95Q65.10 35.05 65.03 35.10Q64.95 35.15 64.90 35.20Q64.30 35.80 63.55 37.20Q62.80 38.60 62.25 40.13Q61.70 41.65 61.70 42.75Q61.70 43.75 62.20 44.10Q62.45 44.25 62.75 44.25Q63.40 44.25 64.55 43.45Q64.60 43.40 64.78 43.27Q64.95 43.15 65.30 42.90Q65.70 42.60 65.95 42.60Q66.20 42.60 66.20 42.80Q66.20 43.10 65.80 43.50Q65.50 43.75 65.13 44.05Q64.75 44.35 64.25 44.65Q63.50 45.20 62.70 45.52Q61.90 45.85 61.40 45.85M55.75 42.65Q56.80 42.65 59.65 39.55Q60.40 38.70 61 37.92Q61.60 37.15 62.10 36.40Q63 34.95 62.70 34.40Q62.55 34.10 62.10 34.10Q61.55 34.10 60.60 34.67Q59.65 35.25 58.68 36.15Q57.70 37.05 56.90 37.95Q56.35 38.65 55.80 39.90Q55.25 41.15 55.25 41.95Q55.25 42.65 55.75 42.65ZM59.40 51.60Q59.20 51.60 59.15 51.33Q59.10 51.05 59.20 50.85Q60.05 49.10 61.70 46.95Q63.35 44.80 65.48 42.55Q67.60 40.30 69.80 38.30L69.85 36.75Q69.85 35.65 69.55 34.85Q69.15 35.05 68.75 35.05Q68.35 35.05 68.35 34.70Q68.35 34.05 69.15 33.60Q69.55 33.35 69.95 33.35Q70.90 33.35 71.18 34.60Q71.45 35.85 71.40 37.15L73.45 35.45Q74.55 34.65 75.45 33.45Q76.60 31.95 77.85 31.95Q78.55 31.95 78.55 32.45Q78.55 32.80 78.10 33.10Q73.80 36.20 71.30 38.25Q71.15 39.60 71.15 41Q71.15 42.55 72.05 42.55Q72.60 42.55 73.25 42.10Q74.05 41.55 74.65 41.05Q75.25 40.55 75.60 40.10Q76.15 39.55 76.35 39.55Q76.55 39.55 76.55 39.80Q76.55 40.20 76.00 40.75Q75.85 40.90 75.70 41Q75.60 41.10 75.45 41.23Q75.30 41.35 75.20 41.45Q74.75 41.80 74.38 42.10Q74.00 42.40 73.75 42.65Q71.25 45 70.10 45Q69.70 45 69.50 44.80Q69.20 44.50 69.20 43.60Q69.20 42.85 69.35 41.98Q69.50 41.10 69.65 40.42Q69.80 39.75 69.80 39.65Q66.10 42.85 63.60 45.70Q61.10 48.55 59.80 51.15Q59.60 51.60 59.40 51.60ZM82.35 33.55Q81.70 33.55 81.70 33.25Q81.70 33 82.08 32.52Q82.45 32.05 82.95 31.70Q84.05 31 84.68 30.50Q85.30 30 86.20 28.80Q86.25 28.90 86.25 29.20Q86.25 29.85 85.73 30.77Q85.20 31.70 84.55 32.45Q83.90 33.20 83.40 33.40Q82.95 33.55 82.35 33.55M77.90 45.80Q77.50 45.80 77.15 45.50Q76.80 45.20 76.80 44.70Q76.80 43.65 78.25 40.85L78.80 39.75Q78.90 39.65 79.08 39.25Q79.25 38.85 79.60 38.20Q79.95 37.50 80.15 36.95Q80.35 36.40 80.45 35.90Q80.45 35.85 80.65 35.70Q80.85 35.55 81.05 35.45L81.35 35.40Q81.75 35.40 82.03 35.55Q82.30 35.70 82.20 35.95Q81.85 36.70 81.60 37.25Q81.35 37.80 81.20 38.20L81.15 38.20Q80.60 39.45 80.23 40.58Q79.85 41.70 79.90 42.70L79.95 44.05Q79.90 44.55 79.60 44.90Q79.40 45.05 79.05 45.27Q78.70 45.50 78.15 45.75Q78.10 45.80 77.90 45.80ZM82.00 46.15Q81.65 46.15 81.65 45.55Q81.65 45.05 81.88 44.35Q82.10 43.65 82.40 43.05Q82.85 42.20 83.75 40.05Q84.80 37.70 85.50 36.27Q86.20 34.85 86.85 34.10Q87.55 33.25 87.95 33.25Q88.20 33.25 88.35 33.58Q88.50 33.90 88.50 34.30Q88.50 34.70 88.40 34.80Q88.00 35.20 87.35 36.15Q86.70 37.10 86.15 38.05Q85.10 40 85.10 40.95Q85.10 41.05 85.13 41.15Q85.15 41.25 85.20 41.35Q85.80 41.05 86.30 40.75Q86.80 40.45 87.45 39.90L90.50 37.10Q91.00 36.65 91.40 36.35Q91.80 36.05 92.05 35.85Q92.55 35.50 93.00 35.50Q93.40 35.50 93.95 36Q94.20 36.25 94.20 37.35L94.20 38.60Q94.20 38.80 94.18 38.98Q94.15 39.15 94.15 39.35Q94.15 40 94.33 40.48Q94.50 40.95 94.85 40.95Q95.00 40.95 95.25 40.70L96.65 39.05Q98.40 37 99.35 36.05Q100.30 35.10 101.50 34.75Q101.65 34.70 101.78 34.67Q101.90 34.65 102.00 34.65Q102.45 34.65 102.78 34.95Q103.10 35.25 102.95 35.75Q102.75 36.55 102.43 37.58Q102.10 38.60 101.85 39.20Q101.25 40.40 101.25 41.10Q101.25 41.55 101.63 41.70Q102.00 41.85 102.38 41.90Q102.75 41.95 102.75 42.10Q103.75 41.75 104.25 41.75Q104.75 41.75 104.50 42.08Q104.25 42.40 103.60 42.85Q102.95 43.30 102.18 43.63Q101.40 43.95 100.80 43.95Q99.55 43.95 99.55 42.60Q99.55 41.90 99.75 41.30Q100.45 38.75 100.45 38Q100.45 37.25 100.05 37.25Q99.15 37.25 96.20 40.85Q95.90 41.20 95.53 41.60Q95.15 42 94.70 42.40Q94.10 42.95 93.55 43.55Q93.25 43.85 92.75 43.85Q91.70 43.85 91.60 43.10Q91.55 42.30 91.53 41.77Q91.50 41.25 91.50 41.05Q91.40 39.75 91.35 39.30Q91.30 38.85 90.90 38.85Q90.40 38.85 88.40 40.45Q85.70 42.60 83.45 45.25Q82.50 46.15 82.00 46.15Z"/></g></g></svg>